<svg width="129" height="39" viewBox="0 0 129 39" fill="none" xmlns="http://www.w3.org/2000/svg">
<path d="M43.719 12.6878H34.3508C34.4282 13.614 34.7507 14.339 35.3235 14.8628C35.8937 15.3865 36.5955 15.6497 37.4288 15.6497C38.6311 15.6497 39.4877 15.1337 39.996 14.0991H43.4894C43.1204 15.3323 42.4109 16.3463 41.3608 17.141C40.3107 17.9356 39.0233 18.3329 37.4985 18.3329C36.2652 18.3329 35.1584 18.0595 34.1779 17.5125C33.1975 16.9655 32.4338 16.1915 31.8869 15.1879C31.3399 14.1868 31.0664 13.0284 31.0664 11.7177C31.0664 10.407 31.3373 9.22794 31.8765 8.2243C32.4158 7.22066 33.1717 6.4518 34.1444 5.90999C35.1171 5.37076 36.2342 5.09985 37.4985 5.09985C38.7627 5.09985 39.8076 5.36302 40.7726 5.88677C41.7349 6.41052 42.4831 7.15615 43.0172 8.11851C43.5487 9.08345 43.8144 10.1877 43.8144 11.439C43.8144 11.9009 43.7835 12.3188 43.7216 12.6878H43.719ZM40.4578 10.5128C40.4423 9.67945 40.1404 9.01379 39.5548 8.51326C38.9691 8.01273 38.2518 7.76247 37.403 7.76247C36.6006 7.76247 35.9272 8.00499 35.3777 8.49004C34.8307 8.97509 34.4953 9.65107 34.3715 10.5128H40.4552H40.4578Z" fill="#82D88A"/>
<path d="M57.2746 5.30605L50.3755 21.7152H46.9647L48.6675 17.7961L43.5332 5.30347H45.5508C46.5209 5.30347 47.3878 5.9072 47.7258 6.81796L50.4735 14.2562L53.2652 6.80764C53.6031 5.90204 54.47 5.30347 55.435 5.30347H57.2746V5.30605Z" fill="#82D88A"/>
<path d="M60.2132 17.5099C59.2251 16.9629 58.451 16.1889 57.8886 15.1853C57.3261 14.1842 57.0449 13.0258 57.0449 11.7151C57.0449 10.4044 57.3339 9.24858 57.9118 8.24494C58.4898 7.24388 59.2792 6.46728 60.2829 5.92031C61.2839 5.37334 62.4037 5.09985 63.637 5.09985C64.8702 5.09985 65.9874 5.37334 66.991 5.92031C67.9921 6.46728 68.7842 7.24388 69.3621 8.24494C69.94 9.24858 70.229 10.4044 70.229 11.7151C70.229 13.0258 69.9323 14.1816 69.3389 15.1853C68.7455 16.1889 67.9431 16.9629 66.9343 17.5099C65.9229 18.0569 64.7954 18.3304 63.5441 18.3304C62.2927 18.3304 61.1988 18.0569 60.2132 17.5099ZM65.1979 15.0821C65.7139 14.7957 66.1267 14.37 66.4363 13.7972C66.7459 13.227 66.8981 12.533 66.8981 11.7151C66.8981 10.4973 66.5782 9.56076 65.9384 8.90543C65.2985 8.2501 64.5168 7.92243 63.5905 7.92243C62.6643 7.92243 61.8903 8.2501 61.2659 8.90543C60.6415 9.56076 60.3293 10.4973 60.3293 11.7151C60.3293 12.9329 60.6338 13.8694 61.2427 14.5248C61.8516 15.1801 62.6178 15.5078 63.5441 15.5078C64.1297 15.5078 64.6819 15.3659 65.1979 15.0795V15.0821Z" fill="#82D88A"/>
<path d="M82.2572 6.56777C83.1963 7.53271 83.6685 8.87692 83.6685 10.6056V18.1238H80.4305V11.0442C80.4305 10.025 80.1751 9.24328 79.6668 8.69631C79.1585 8.14934 78.4645 7.87586 77.5847 7.87586C76.7049 7.87586 75.9851 8.14934 75.4691 8.69631C74.9531 9.24328 74.6951 10.0276 74.6951 11.0442V18.1238H71.4571V5.30612H73.1006C73.983 5.30612 74.6976 6.0208 74.6976 6.90318C75.1285 6.34847 75.6806 5.91244 76.3515 5.59509C77.0223 5.28032 77.7576 5.12036 78.56 5.12036C80.0874 5.12036 81.3206 5.60283 82.2624 6.56519L82.2572 6.56777Z" fill="#82D88A"/>
<path d="M43.9667 28.3073V37.8845H40.7287V28.0261C40.7287 27.941 40.7287 27.861 40.721 27.7784V27.7707C40.721 27.732 40.721 27.6933 40.7184 27.6546C40.7055 27.2263 40.6152 26.8135 40.4526 26.4368C40.4475 26.4213 40.4397 26.4033 40.4294 26.3878C39.9031 25.1855 38.7034 24.347 37.2998 24.347H36.8122C34.9262 24.347 33.3962 25.8769 33.3962 27.7707V37.8845H30.1556V21.9036H32.2532C32.8853 21.9036 33.3962 22.4145 33.3962 23.0466C33.3962 23.0466 33.4194 23.0311 33.4323 23.0285C33.4323 23.0285 33.4349 23.026 33.44 23.026C34.5366 22.2081 35.8963 21.7205 37.3772 21.7205C39.1961 21.7205 40.8422 22.4584 42.0316 23.6529C42.0497 23.6684 42.0703 23.6865 42.0858 23.7071C43.252 24.8939 43.9667 26.5194 43.9667 28.3125V28.3073Z" fill="#F7F7F0"/>
<path d="M85.5313 8.22154C86.0473 7.2179 86.7542 6.44904 87.6469 5.90723C88.5422 5.368 89.5355 5.09709 90.632 5.09709C91.4654 5.09709 92.26 5.2777 93.016 5.64148C93.772 6.00527 94.3731 6.48516 94.8195 7.08631V3.85351C94.8195 2.5738 95.8566 1.53662 97.1363 1.53662H98.1039V18.1212H94.8195V16.2249C94.417 16.857 93.8545 17.3652 93.1295 17.7522C92.4045 18.1367 91.5634 18.3302 90.6088 18.3302C89.5304 18.3302 88.5422 18.0515 87.6469 17.4968C86.7516 16.9421 86.0473 16.1578 85.5313 15.149C85.0153 14.1402 84.7573 12.9792 84.7573 11.6685C84.7573 10.3578 85.0153 9.22518 85.5313 8.22154ZM94.3809 9.68958C94.0712 9.12713 93.6559 8.69368 93.1321 8.3944C92.6084 8.09253 92.0459 7.94289 91.4422 7.94289C90.8384 7.94289 90.2863 8.08995 89.7755 8.3815C89.2672 8.67562 88.8544 9.10391 88.537 9.66636C88.2197 10.2288 88.0623 10.897 88.0623 11.6685C88.0623 12.4399 88.2197 13.1133 88.537 13.6938C88.8518 14.2718 89.2698 14.7155 89.7858 15.0251C90.3018 15.3347 90.8539 15.487 91.4396 15.487C92.0253 15.487 92.6032 15.3373 93.1295 15.0355C93.6533 14.7336 94.0712 14.3027 94.3783 13.7403C94.6879 13.1778 94.8401 12.5018 94.8401 11.7149C94.8401 10.928 94.6853 10.2546 94.3783 9.69216L94.3809 9.68958Z" fill="#82D88A"/>
<path d="M58.1028 25.072V37.8871H54.8416V36.2669C54.4262 36.8216 53.8818 37.2576 53.211 37.575C52.5402 37.8897 51.8126 38.0497 51.0257 38.0497C50.022 38.0497 49.1371 37.8381 48.3656 37.4124C47.5942 36.9893 46.9905 36.3649 46.5493 35.5393C46.1107 34.7137 45.8888 33.7307 45.8888 32.5903V25.072H46.8099C48.0896 25.072 49.1268 26.1092 49.1268 27.3889V32.1259C49.1268 33.145 49.3822 33.9268 49.8905 34.4737C50.3987 35.0207 51.0928 35.2942 51.9726 35.2942C52.8524 35.2942 53.5696 35.0207 54.0779 34.4737C54.5862 33.9268 54.8416 33.1424 54.8416 32.1259V27.3889C54.8416 26.1092 55.8788 25.072 57.1585 25.072H58.1028Z" fill="#F7F7F0"/>
<path d="M79.8577 26.3309C80.8201 27.2959 81.3026 28.6401 81.3026 30.3687V37.887H78.0646V30.8073C78.0646 29.8037 77.8092 29.0374 77.3009 28.5059C76.7926 27.9744 76.0986 27.7087 75.2188 27.7087C74.339 27.7087 73.6424 27.9744 73.1264 28.5059C72.6104 29.0374 72.3524 29.8063 72.3524 30.8073V37.887H69.1144V30.8073C69.1144 29.8037 68.859 29.0374 68.3507 28.5059C67.8424 27.9744 67.1484 27.7087 66.2686 27.7087C65.3888 27.7087 64.669 27.9744 64.153 28.5059C63.637 29.0374 63.379 29.8063 63.379 30.8073V37.887H60.141V25.0719H61.8309C62.6875 25.0719 63.3815 25.7659 63.3815 26.6225C63.7969 26.0832 64.3336 25.6601 64.9889 25.3505C65.6442 25.0435 66.3641 24.8887 67.151 24.8887C68.152 24.8887 69.0473 25.1002 69.8342 25.5259C70.6212 25.9517 71.2301 26.5554 71.6609 27.3423C72.0763 26.6018 72.6826 26.0084 73.4773 25.5621C74.2719 25.1157 75.1311 24.8913 76.0573 24.8913C77.6312 24.8913 78.898 25.3737 79.8629 26.3361L79.8577 26.3309Z" fill="#F7F7F0"/>
<path d="M88.1862 25.4409C88.9189 25.0565 89.7548 24.863 90.6966 24.863C91.7905 24.863 92.7812 25.1339 93.6688 25.6731C94.5563 26.2124 95.2581 26.9812 95.7741 27.9745C96.2901 28.9704 96.5481 30.1211 96.5481 31.4318C96.5481 32.7425 96.2901 33.9035 95.7741 34.9123C95.2581 35.9237 94.5563 36.7054 93.6688 37.2601C92.7812 37.8149 91.7905 38.0935 90.6966 38.0935C89.7394 38.0935 88.9034 37.9052 88.1862 37.5259C87.4689 37.1492 86.8936 36.659 86.4627 36.0578V37.8845H83.2247V21.7153H84.1458C85.4255 21.7153 86.4627 22.7525 86.4627 24.0322V26.9425C86.8781 26.3259 87.4534 25.8254 88.1862 25.4383V25.4409ZM92.7658 29.4323C92.4484 28.8698 92.033 28.4415 91.517 28.1474C91.001 27.8559 90.4411 27.7088 89.84 27.7088C89.2388 27.7088 88.7022 27.8584 88.1862 28.1603C87.6702 28.4622 87.2522 28.8982 86.9374 29.4684C86.6201 30.0386 86.4627 30.7094 86.4627 31.4808C86.4627 32.2523 86.6201 32.9231 86.9374 33.4933C87.2522 34.0635 87.6702 34.4995 88.1862 34.8014C88.7022 35.1032 89.2543 35.2529 89.84 35.2529C90.4257 35.2529 91.001 35.0981 91.517 34.791C92.033 34.484 92.451 34.0428 92.7658 33.4726C93.0805 32.9024 93.2405 32.2239 93.2405 31.437C93.2405 30.65 93.0831 29.9999 92.7658 29.4348V29.4323Z" fill="#F7F7F0"/>
<path d="M109.988 32.451H100.619C100.697 33.3772 101.019 34.1022 101.592 34.626C102.162 35.1497 102.864 35.4129 103.697 35.4129C104.9 35.4129 105.756 34.8969 106.265 33.8623H109.758C109.389 35.0955 108.68 36.1095 107.629 36.9041C106.579 37.6988 105.292 38.0961 103.767 38.0961C102.534 38.0961 101.427 37.8226 100.447 37.2757C99.4661 36.7287 98.7024 35.9547 98.1555 34.951C97.6085 33.95 97.335 32.7915 97.335 31.4809C97.335 30.1702 97.6059 28.9911 98.1452 27.9875C98.6844 26.9838 99.4403 26.215 100.413 25.6732C101.386 25.1339 102.503 24.863 103.767 24.863C105.031 24.863 106.076 25.1262 107.041 25.65C108.004 26.1737 108.752 26.9193 109.286 27.8817C109.817 28.8466 110.083 29.9509 110.083 31.2022C110.083 31.6641 110.052 32.082 109.99 32.451H109.988ZM106.726 30.276C106.711 29.4426 106.409 28.777 105.823 28.2764C105.238 27.7759 104.52 27.5257 103.672 27.5257C102.869 27.5257 102.196 27.7682 101.646 28.2532C101.099 28.7383 100.764 29.4142 100.64 30.276H106.724H106.726Z" fill="#F7F7F0"/>
<path d="M115.736 25.4642C116.407 25.0797 117.173 24.8862 118.037 24.8862V28.2867H117.181C116.162 28.2867 115.395 28.5267 114.879 29.004C114.363 29.4813 114.105 30.3147 114.105 31.5015V37.8871H110.867V25.072H112.116C113.215 25.072 114.105 25.9621 114.105 27.0612C114.521 26.3827 115.065 25.8512 115.736 25.4642Z" fill="#F7F7F0"/>
<path d="M121.139 37.5285C120.305 37.1518 119.647 36.6384 119.16 35.9908C118.675 35.3432 118.409 34.626 118.362 33.839H121.624C121.686 34.3318 121.928 34.7421 122.351 35.0646C122.774 35.3896 123.303 35.5496 123.935 35.5496C124.567 35.5496 125.034 35.4258 125.38 35.1807C125.726 34.933 125.901 34.6182 125.901 34.2312C125.901 33.8158 125.69 33.5036 125.264 33.2946C124.841 33.0857 124.165 32.8586 123.239 32.6109C122.282 32.3787 121.5 32.1414 120.891 31.8937C120.282 31.646 119.758 31.2693 119.317 30.761C118.876 30.2528 118.657 29.5665 118.657 28.7022C118.657 27.9926 118.86 27.345 119.271 26.7594C119.678 26.1737 120.267 25.7119 121.028 25.3713C121.791 25.0333 122.689 24.863 123.724 24.863C125.251 24.863 126.469 25.2449 127.38 26.0086C128.29 26.7723 128.791 27.8017 128.884 29.0969H125.785C125.739 28.5886 125.527 28.1836 125.148 27.8817C124.769 27.5798 124.266 27.4302 123.634 27.4302C123.048 27.4302 122.596 27.5386 122.279 27.7553C121.962 27.972 121.804 28.2713 121.804 28.6583C121.804 29.0892 122.021 29.4168 122.452 29.6413C122.883 29.8658 123.554 30.0928 124.464 30.325C125.391 30.5572 126.154 30.7946 126.755 31.0423C127.357 31.2899 127.878 31.6718 128.316 32.1878C128.755 32.7038 128.985 33.3875 129 34.2338C129 34.9743 128.796 35.6373 128.386 36.223C127.978 36.8087 127.39 37.2679 126.629 37.5982C125.865 37.9284 124.975 38.0961 123.956 38.0961C122.937 38.0961 121.967 37.9078 121.133 37.5285H121.139Z" fill="#F7F7F0"/>
<path d="M0.216834 4.32324C0.216834 4.32324 0.214218 4.34679 0.208984 4.35726L0.216834 4.32324Z" fill="#003432"/>
<path d="M15.5139 26.5477C14.5025 26.5477 13.5169 26.4523 12.5855 26.2691C7.47183 25.2551 3.63271 21.6327 2.56715 16.8106C1.72605 12.9999 2.29109 8.59315 4.0352 4.68437C3.52951 4.79273 3.02898 4.89852 2.53103 5.00172C1.47579 5.2236 0.441189 4.54505 0.219304 3.48981L0 2.44489L1.91182 2.04498C3.47791 1.71731 5.0956 1.37933 6.60235 0.971677L8.25101 3.2705C5.66321 7.13542 4.61571 12.0736 5.51615 16.1579C6.31855 19.7906 9.25207 22.5306 13.1737 23.3072C17.3173 24.1276 22.8206 22.7886 25.3206 18.6399C26.2443 17.1073 26.4662 15.0226 25.8882 13.3275C25.6483 12.6284 25.189 11.7486 24.3041 11.1242C24.1699 11.8569 23.948 12.5638 23.6436 13.2192C22.9676 14.6769 21.8763 15.8973 20.5759 16.6584C18.9402 17.6156 16.5459 17.7833 15.1397 16.2559C14.0535 15.0768 13.9813 13.3895 14.9359 11.6299C16.2414 9.22526 18.6538 7.68755 21.1719 7.41407C21.0945 7.14832 21.0016 6.88774 20.8933 6.63747C20.5037 5.74735 19.7374 4.58633 18.2951 4.12192C15.0701 3.08216 12.3197 6.52137 11.3935 9.29492C11.3548 9.41361 11.3161 9.53487 11.2826 9.65355L10.8646 11.1061L7.96204 10.2728L8.38001 8.82019C8.42645 8.65765 8.47547 8.49769 8.52965 8.3403C9.26239 6.1421 10.635 4.10386 12.2965 2.74417C14.4044 1.01296 16.8632 0.481467 19.224 1.24258C21.1848 1.8747 22.7586 3.36081 23.6617 5.42227C23.9867 6.1679 24.2138 6.95998 24.3402 7.76753C24.4021 7.79075 24.4666 7.81397 24.5286 7.8372C26.5229 8.61379 28.0194 10.216 28.7469 12.3471C29.6138 14.8885 29.2913 17.8942 27.9084 20.1931C25.269 24.574 20.1347 26.5426 15.5164 26.5426L15.5139 26.5477ZM21.3551 10.4405C19.7684 10.6804 18.2977 11.764 17.5882 13.067C17.3612 13.4875 17.1909 14.0242 17.3612 14.2099C17.614 14.486 18.4345 14.4086 19.0485 14.05C19.8122 13.6036 20.4882 12.8373 20.901 11.9472C21.1151 11.4854 21.2674 10.9745 21.3525 10.443L21.3551 10.4405Z" fill="#82D88A"/>
</svg>
