<svg width="110" height="23" viewBox="0 0 110 23" fill="none" xmlns="http://www.w3.org/2000/svg">
<path d="M13.8378 2.5061V9.20298C13.8378 13.5459 10.316 17.0738 5.96697 17.0738H3.26024C1.45981 17.0738 0 15.614 0 13.8135V2.5061H2.07414V13.5155C2.07414 14.3306 2.73714 14.9996 3.55828 14.9996H5.96697C9.16638 14.9996 11.7636 12.4024 11.7636 9.20298V6.04614L7.41461 10.3952L5.94872 8.92926L10.2977 4.58025H5.07283V2.5061H13.8378Z" fill="#B8F99B"/>
<path d="M5.07712 9.81021L3.61047 11.2769L5.07712 12.7435L6.54376 11.2769L5.07712 9.81021Z" fill="#B8F99B"/>
<path d="M30.7412 7.3233C30.3275 6.60556 29.7497 6.05205 29.0015 5.65669C28.2534 5.26132 27.3958 5.0606 26.4286 5.0606C25.1878 5.0606 24.1294 5.33431 23.2596 5.88174C22.3838 6.42917 21.7147 7.17124 21.2463 8.11403C20.778 9.05074 20.5407 10.0909 20.5407 11.2405C20.5407 12.3901 20.778 13.4484 21.2585 14.3851C21.7329 15.3218 22.4081 16.07 23.284 16.6296C24.1599 17.1831 25.2 17.4629 26.4104 17.4629C27.4931 17.4629 28.3872 17.2318 29.105 16.7695C29.8227 16.3072 30.3701 15.7902 30.7533 15.2184L30.9419 17.177H32.7545V0.474365H30.7533V7.31722L30.7412 7.3233ZM30.2059 13.4849C29.8957 14.1601 29.4395 14.7014 28.8373 15.1089C28.2352 15.5165 27.4931 15.7172 26.6172 15.7172C25.8873 15.7172 25.2121 15.5408 24.6039 15.1819C23.9895 14.8231 23.5029 14.3121 23.138 13.6431C22.773 12.974 22.5906 12.1832 22.5906 11.2587C22.5906 10.3342 22.7669 9.54343 23.1258 8.88651C23.4847 8.2296 23.9652 7.71258 24.5674 7.34763C25.1696 6.98268 25.8569 6.8002 26.6172 6.8002C27.4748 6.8002 28.2047 6.99484 28.813 7.38413C29.4152 7.77341 29.8774 8.30259 30.1937 8.97167C30.51 9.64075 30.6682 10.4011 30.6682 11.2587C30.6682 12.0677 30.51 12.8158 30.2059 13.491V13.4849Z" fill="#FCF3E8"/>
<path d="M35.8687 0C35.4734 0 35.1388 0.127733 34.8773 0.3832C34.6157 0.638666 34.4819 0.954958 34.4819 1.33816C34.4819 1.72136 34.6157 2.06806 34.8773 2.32961C35.1388 2.59116 35.4673 2.72498 35.8687 2.72498C36.2702 2.72498 36.5743 2.59116 36.848 2.32961C37.1156 2.06806 37.2555 1.73961 37.2555 1.33816C37.2555 0.936711 37.1217 0.638666 36.848 0.3832C36.5804 0.127733 36.2519 0 35.8687 0Z" fill="#FCF3E8"/>
<path d="M36.8723 5.34058H34.8712V17.1711H36.8723V5.34058Z" fill="#FCF3E8"/>
<path d="M43.4293 5.05469C42.523 5.05469 41.714 5.21892 41.0084 5.55346C40.3029 5.88799 39.7433 6.36852 39.3418 6.99502C38.9343 7.62152 38.7336 8.37575 38.7336 9.24555C38.7336 9.80515 38.8248 10.3039 39.0073 10.7601C39.1898 11.2102 39.4392 11.6238 39.7554 11.9888C38.8978 12.5788 38.4659 13.3513 38.4659 14.3001C38.4659 14.732 38.5876 15.1091 38.8248 15.4437C39.062 15.7782 39.3722 16.058 39.7554 16.277C39.2628 16.502 38.8674 16.8244 38.5633 17.2563C38.2591 17.6881 38.1132 18.2234 38.1132 18.8803C38.1132 19.817 38.3808 20.5712 38.91 21.1308C39.4452 21.6965 40.1386 22.098 40.9963 22.3352C41.8539 22.5724 42.7541 22.694 43.6908 22.694C44.6276 22.694 45.4791 22.542 46.2881 22.2439C47.0971 21.9398 47.7601 21.4897 48.2649 20.8875C48.7758 20.2854 49.0252 19.5311 49.0252 18.6248C49.0252 17.7185 48.8306 17.0312 48.4413 16.5142C48.052 15.9972 47.5168 15.6261 46.8294 15.395C46.1482 15.1639 45.3575 15.0483 44.4694 15.0483H42.4926C41.1544 15.0483 40.4914 14.6529 40.4914 13.8561C40.4914 13.4243 40.6982 13.108 41.1118 12.9012C41.4768 13.0776 41.8418 13.2114 42.2067 13.3087C42.5717 13.406 42.9792 13.4547 43.4232 13.4547C44.2991 13.4547 45.0898 13.2904 45.7954 12.9681C46.501 12.6396 47.0666 12.1713 47.4863 11.5508C47.906 10.9304 48.1189 10.1701 48.1189 9.2638C48.1189 8.85019 48.0642 8.45482 47.9669 8.08379C47.8635 7.71276 47.7053 7.36605 47.5046 7.04368H49.3415V5.35273H45.3088C44.7188 5.16417 44.0923 5.06685 43.4232 5.06685L43.4293 5.05469ZM40.7347 17.3232C41.1788 16.9825 41.7931 16.8122 42.5717 16.8122H44.5971C46.2516 16.8122 47.0788 17.4935 47.0788 18.862C47.0788 19.5919 46.7443 20.1394 46.0752 20.4982C45.4061 20.8571 44.5971 21.0335 43.6422 21.0335C43.0035 21.0335 42.4196 20.9605 41.8782 20.8206C41.3369 20.6746 40.899 20.4496 40.5644 20.1272C40.2299 19.8109 40.0657 19.3851 40.0657 18.862C40.0657 18.1808 40.2907 17.6638 40.7347 17.3232ZM46.1968 9.25164C46.1968 9.98154 45.9353 10.5898 45.4122 11.0642C44.8891 11.5387 44.2139 11.782 43.3867 11.782C42.5595 11.782 41.8539 11.5448 41.3734 11.0642C40.8868 10.5898 40.6435 9.98154 40.6435 9.25164C40.6435 8.52173 40.8929 7.91348 41.3916 7.43904C41.8904 6.9646 42.5534 6.7213 43.3806 6.7213C44.2079 6.7213 44.883 6.95852 45.4061 7.43904C45.9292 7.91348 46.1908 8.52173 46.1908 9.25164H46.1968Z" fill="#FCF3E8"/>
<path d="M52.468 5.34058H50.4668V17.1711H52.468V5.34058Z" fill="#FCF3E8"/>
<path d="M51.4643 0C51.069 0 50.7344 0.127733 50.4729 0.3832C50.2113 0.638666 50.0775 0.954958 50.0775 1.33816C50.0775 1.72136 50.2113 2.06806 50.4729 2.32961C50.7344 2.59116 51.0629 2.72498 51.4643 2.72498C51.8658 2.72498 52.1699 2.59116 52.4436 2.32961C52.7113 2.06806 52.8511 1.73961 52.8511 1.33816C52.8511 0.936711 52.7173 0.638666 52.4436 0.3832C52.176 0.127733 51.8475 0 51.4643 0Z" fill="#FCF3E8"/>
<path d="M57.7841 2.5061H55.783V5.34665H53.7332V7.03759H55.783V13.5459C55.783 14.9145 56.0932 15.8573 56.7136 16.3865C57.334 16.9095 58.1856 17.1711 59.2683 17.1711H61.1052V15.4558H59.84C59.0797 15.4558 58.5444 15.322 58.2403 15.0605C57.9362 14.7989 57.7902 14.2941 57.7902 13.5459V7.03759H61.1052V5.34665H57.7902V2.5061H57.7841Z" fill="#FCF3E8"/>
<path d="M84.158 5.8696C83.2882 5.32825 82.2541 5.05454 81.0559 5.05454C79.961 5.05454 79.0547 5.28567 78.3491 5.74794C77.6436 6.21022 77.1022 6.72723 76.719 7.29899V0.480469H74.6023V13.3268V14.5798C74.6023 14.7075 74.6023 14.8353 74.5658 14.963C74.5415 15.0603 74.4989 15.1576 74.4502 15.2428C74.3468 15.4192 74.2009 15.5591 74.0245 15.6564C73.8541 15.7476 73.6656 15.7963 73.4709 15.7963C72.8505 15.7963 72.3457 15.2914 72.3457 14.671V9.89623C72.3457 9.0021 72.1815 8.19312 71.8469 7.46322C71.5124 6.73332 70.9771 6.14939 70.2472 5.71753C69.5173 5.27959 68.5502 5.06062 67.358 5.06062C66.5125 5.06062 65.7157 5.21268 64.9615 5.52289C64.2072 5.8331 63.5807 6.28321 63.0881 6.86713C62.6015 7.45714 62.3156 8.18096 62.2304 9.0386H64.2863C64.4262 8.26611 64.779 7.68827 65.3447 7.31116C65.9043 6.94012 66.5794 6.75156 67.358 6.75156C67.8933 6.75156 68.392 6.85497 68.8361 7.06177C69.2801 7.2625 69.645 7.6092 69.9187 8.08364C70.1985 8.56416 70.3324 9.21499 70.3324 10.0422H67.139C66.2266 10.0422 65.3873 10.1699 64.5965 10.4132C63.8119 10.6626 63.1793 11.0519 62.7049 11.6054C62.2243 12.1529 61.9871 12.8888 61.9871 13.8073C61.9871 14.6041 62.1818 15.2732 62.571 15.8206C62.9603 16.3741 63.4834 16.7817 64.1525 17.0493C64.8216 17.3169 65.5637 17.4568 66.3726 17.4568C67.3398 17.4568 68.1731 17.2257 68.8665 16.7634C69.5538 16.3011 70.1012 15.7355 70.4966 15.0664C70.5392 15.2185 70.5817 15.3705 70.6426 15.5165C70.825 16.0213 71.1048 16.4775 71.5124 16.8486C71.7557 17.0675 72.0355 17.2379 72.3335 17.3717C72.6376 17.4994 72.96 17.5785 73.2885 17.6028C73.3675 17.6028 73.4466 17.615 73.5257 17.615C73.8785 17.615 74.2313 17.5541 74.5658 17.4264C74.6266 17.4082 74.6875 17.3838 74.7422 17.3595C75.1132 17.2014 75.4478 16.9581 75.7276 16.66C75.91 16.4654 76.0743 16.2464 76.2203 16.0153C76.3602 15.7963 76.5061 15.5591 76.5852 15.3158C76.5974 15.2854 76.6582 15.1637 76.6582 15.1333C77.0596 15.851 77.6679 16.4593 78.4282 16.8547C79.1824 17.25 80.0462 17.4507 81.0133 17.4507C82.2115 17.4507 83.2456 17.1831 84.1276 16.6539C85.0095 16.1187 85.6908 15.3827 86.1652 14.446C86.6396 13.5093 86.8829 12.4509 86.8829 11.2709C86.8829 10.0909 86.6396 9.01427 86.1652 8.07147C85.6908 7.13476 85.0156 6.39878 84.1336 5.85743L84.158 5.8696ZM70.3506 11.6115C70.3506 12.2928 70.2168 12.9557 69.937 13.5944C69.6633 14.227 69.2497 14.7501 68.7144 15.1515C68.1731 15.5591 67.504 15.7598 66.7072 15.7598C65.9894 15.7598 65.3812 15.5956 64.8702 15.2732C64.3593 14.9508 64.1038 14.4277 64.1038 13.7161C64.1038 13.1565 64.2559 12.7246 64.56 12.4144C64.8581 12.1042 65.2595 11.8913 65.7522 11.7697C66.2449 11.6541 66.768 11.5933 67.3276 11.5933H70.3567V11.6176L70.3506 11.6115ZM84.3587 13.5823C84.0181 14.2574 83.5436 14.7805 82.9415 15.1576C82.3393 15.5347 81.6276 15.7172 80.8187 15.7172C80.0097 15.7172 79.2798 15.5165 78.6715 15.1211C78.0633 14.7258 77.5949 14.1844 77.2604 13.5153C76.9258 12.8402 76.7616 12.0859 76.7616 11.2587C76.7616 10.3707 76.9319 9.59211 77.2725 8.92303C77.6132 8.25395 78.0937 7.73085 78.7019 7.35982C79.3163 6.98878 80.0218 6.80022 80.8126 6.80022C81.658 6.80022 82.3758 6.99486 82.984 7.38415C83.5923 7.77343 84.0546 8.30869 84.3769 8.98385C84.6993 9.65902 84.8635 10.4193 84.8635 11.2587C84.8635 12.0981 84.6932 12.9071 84.3526 13.5823H84.3587Z" fill="#FCF3E8"/>
<path d="M89.5471 0C89.1517 0 88.8172 0.127733 88.5556 0.3832C88.2941 0.638666 88.1603 0.954958 88.1603 1.33816C88.1603 1.72136 88.2941 2.06806 88.5556 2.32961C88.8172 2.59116 89.1457 2.72498 89.5471 2.72498C89.9486 2.72498 90.2527 2.59116 90.5264 2.32961C90.794 2.06806 90.9339 1.73961 90.9339 1.33816C90.9339 0.936711 90.8001 0.638666 90.5264 0.3832C90.2588 0.127733 89.9303 0 89.5471 0Z" fill="#FCF3E8"/>
<path d="M90.5507 5.34058H88.5496V17.1711H90.5507V5.34058Z" fill="#FCF3E8"/>
<path d="M94.6747 0.474365H92.6735V17.1648H94.6747V0.474365Z" fill="#FCF3E8"/>
<path d="M98.823 5.34058H96.8218V17.1711H98.823V5.34058Z" fill="#FCF3E8"/>
<path d="M97.8254 0C97.4301 0 97.0955 0.127733 96.834 0.3832C96.5724 0.638666 96.4386 0.954958 96.4386 1.33816C96.4386 1.72136 96.5724 2.06806 96.834 2.32961C97.0955 2.59116 97.424 2.72498 97.8254 2.72498C98.2269 2.72498 98.531 2.59116 98.8047 2.32961C99.0723 2.06806 99.2122 1.73961 99.2122 1.33816C99.2122 0.936711 99.0784 0.638666 98.8047 0.3832C98.5371 0.127733 98.2086 0 97.8254 0Z" fill="#FCF3E8"/>
<path d="M109.413 11.8428C109.017 11.3927 108.488 11.046 107.837 10.8027C107.186 10.5654 106.463 10.3647 105.666 10.2066C105.094 10.0788 104.595 9.93894 104.176 9.77471C103.756 9.61657 103.434 9.42801 103.208 9.20296C102.983 8.9779 102.874 8.71027 102.874 8.39398C102.874 7.90129 103.069 7.50593 103.458 7.2018C103.847 6.89767 104.401 6.74561 105.112 6.74561C105.824 6.74561 106.426 6.91592 106.864 7.25654C107.302 7.59717 107.557 8.0716 107.637 8.67378H109.613C109.486 7.51201 109.023 6.61788 108.22 5.99138C107.418 5.36488 106.39 5.04858 105.131 5.04858C104.255 5.04858 103.494 5.20065 102.856 5.50477C102.211 5.8089 101.712 6.22251 101.365 6.74561C101.013 7.26871 100.842 7.88305 100.842 8.58254C100.842 9.28203 101.049 9.8477 101.463 10.2735C101.876 10.7053 102.4 11.0399 103.038 11.2893C103.677 11.5386 104.328 11.7333 104.997 11.8732C105.635 12.0009 106.171 12.1347 106.609 12.2686C107.047 12.4024 107.381 12.597 107.612 12.8525C107.843 13.1079 107.959 13.4729 107.959 13.9473C107.959 14.4218 107.758 14.8658 107.363 15.2247C106.967 15.5835 106.347 15.7599 105.502 15.7599C104.595 15.7599 103.878 15.5349 103.342 15.0787C102.807 14.6286 102.479 14.0872 102.351 13.4668H100.301C100.411 14.2758 100.696 14.9814 101.146 15.5775C101.597 16.1735 102.199 16.6358 102.947 16.9582C103.695 17.2866 104.534 17.4448 105.477 17.4448C106.42 17.4448 107.223 17.2866 107.898 16.9704C108.573 16.6541 109.096 16.2161 109.473 15.6565C109.845 15.103 110.027 14.4704 110.009 13.7709C110.009 12.9316 109.808 12.2807 109.413 11.8245V11.8428Z" fill="#FCF3E8"/>
</svg>
