<svg width="110" height="20" viewBox="0 0 110 20" fill="none" xmlns="http://www.w3.org/2000/svg">
<path d="M47.2232 16.048C46.3399 16.0492 45.4661 15.8702 44.6545 15.5222L45.6284 18.5182C46.0915 18.5888 46.5591 18.6258 47.0272 18.6291C49.4135 18.5922 51.7297 17.8176 53.6584 16.4122V10.1199H53.6339V9.99868H48.0364V12.2185H51.1495V14.8789C49.9655 15.6061 48.6112 16.0102 47.2224 16.0509M52.1234 5.87969L53.7551 3.75997C51.917 2.21961 49.5963 1.37363 47.1983 1.37031C44.8535 1.3375 42.5801 2.17891 40.8213 3.73007L41.8434 6.86645C42.9863 5.01087 45.0204 3.89287 47.1995 3.92277C49.0256 3.94478 50.7795 4.63959 52.125 5.8747M89.9456 18.5049H92.7721V1.44133H89.9456V13.704L80.801 1.44133H77.9744V18.5049H80.8488V6.26883L89.9456 18.5049ZM100.403 15.9226V11.2118H108.744V8.62983H100.403V4.01746H109.718V1.43634H97.5286V18.5049H110.01V15.923H100.403L100.403 15.9226Z" fill="#001D55"/>
<path d="M34.3556 11.8392L36.4214 5.70394L38.3517 11.8392H34.3556ZM28.7333 18.5493H32.2629L33.5026 14.7464H39.1304L40.3497 18.5493H43.8487L38.2682 1.36816H34.5309L28.7333 18.5493ZM13.2175 1.36816L18.3228 9.94462L13.2873 18.5489H16.9187L20.1053 12.7662L23.287 18.5489H26.9184L21.8749 9.94628L27.0359 1.36983H23.4028L20.1053 7.23226L16.8489 1.37024L13.2175 1.36816ZM0.00373774 15.1733C0.00373774 18.3425 2.43618 18.6889 3.96823 18.6212C3.96823 18.6212 9.96274 18.3994 11.293 18.2187V15.5259H4.74236C4.06126 15.5259 3.29793 15.5496 3.28714 14.3066V11.6229L10.2244 11.4119V8.71573L3.28506 8.45907V5.77704C3.28506 5.1437 3.28506 4.46177 4.50439 4.46177L11.2896 4.46509V1.74941C9.77876 1.54093 3.72985 1.37149 3.72985 1.37149C2.10975 1.33992 0 1.95748 0 4.93978L0.00373774 15.1737V15.1733Z" fill="#F48718"/>
<path d="M72.719 12.0374L67.992 16.7639C67.7648 16.9757 67.4496 17.065 67.1452 17.004L61.0049 15.5542C60.7092 15.4744 60.4783 15.2435 60.3985 14.9478L58.9475 8.80712C58.8872 8.50229 58.9774 8.18749 59.1892 7.96031L63.9145 3.23373C64.1421 3.02151 64.4577 2.93139 64.763 2.99244L70.902 4.44185C71.1994 4.52159 71.4319 4.75416 71.5117 5.05152L72.9615 11.1918C73.0221 11.4966 72.9324 11.8123 72.7202 12.0399M75.2843 11.3355L73.4437 3.73085C73.2796 3.13863 72.817 2.67556 72.2243 2.51152L64.6197 0.670889C64.0108 0.545883 63.3796 0.724048 62.9252 1.14807L57.1002 6.96981C56.6762 7.42416 56.4988 8.05583 56.6247 8.66467L58.4653 16.2693C58.6285 16.8619 59.092 17.3254 59.6846 17.4886L67.2897 19.3293C67.8981 19.4539 68.5289 19.2761 68.9829 18.8521L74.8067 13.0295C75.2311 12.5752 75.4089 11.9435 75.2839 11.3347" fill="#F48718"/>
</svg>
