<svg width="160" height="38" viewBox="0 0 160 38" fill="none" xmlns="http://www.w3.org/2000/svg">
<path d="M121.895 3.29248H101.739C100.651 3.29248 99.6915 3.88673 99.1476 4.75402C97.4359 3.82249 95.3084 3.29248 92.8769 3.29248H84.4626C83.0869 3.29248 81.9351 4.20795 81.5672 5.47675C79.6796 3.95097 77.2801 3.08369 74.5127 3.08369C70.2895 3.08369 66.9142 4.72189 64.7387 7.59679C63.171 5.66948 60.9635 4.77008 58.7559 4.77008C56.7723 4.77008 54.4208 5.39645 52.3572 7.61285C50.9815 5.81403 48.9339 4.77008 46.5024 4.77008C46.1345 4.77008 45.7986 4.8022 45.4626 4.85038C44.6148 1.9273 42.0074 0 38.648 0C38.2801 0 37.8802 0.0160609 37.5283 0.0642435C35.2248 0.3694 33.4171 1.52578 32.2014 3.3246C30.9376 2.23246 29.354 1.62215 27.6743 1.62215C25.7707 1.62215 23.9311 2.42519 22.6193 3.83855L22.3954 4.07946C21.6595 4.8825 21.1476 5.83009 20.8597 6.80981C18.8281 4.4328 15.9167 3.06762 12.3974 3.06762C4.99097 3.08369 0.127974 8.19104 0 16.1412C0 24.0752 4.879 29.1986 12.4454 29.1986C16.2687 29.1986 19.404 27.6086 21.4356 24.814C22.6993 25.9383 24.379 26.5807 26.3466 26.5807C26.7145 26.5807 27.0984 26.5647 27.4663 26.5165C29.8179 26.2113 31.6575 25.0068 32.8572 23.1276L33.1132 23.3686C34.3769 24.541 36.0246 25.1995 37.7682 25.1995C37.9282 25.1995 38.0882 25.1834 38.2481 25.1674C37.5443 26.9019 37.0804 28.7008 37.0804 30.5638C37.0804 34.8039 40.1357 38 44.1829 38C47.2063 38 50.9335 36.6509 52.3892 30.6602C52.9171 30.8208 53.477 30.885 54.0689 30.885C58.26 30.885 61.9073 27.962 64.2268 24.0431C66.3543 27.3035 69.9376 29.1986 74.5287 29.1986C77.2641 29.1986 79.6636 28.3635 81.5352 26.8698C81.8712 28.1868 83.0389 29.1826 84.4626 29.1826H89.9495C91.1492 29.1826 92.189 28.4759 92.6849 27.4641C94.5405 28.8453 96.6361 29.568 98.9076 29.568C99.6115 29.568 100.779 29.4717 101.755 29.2147C102.715 28.9577 103.467 28.235 103.803 27.3356C104.267 28.4277 105.338 29.1826 106.586 29.1826H115.32C115.96 29.1826 116.536 28.9899 117.032 28.6526C116.056 27.3838 115.384 25.8901 115.112 24.2198L115.048 23.8022C114.808 22.3407 115.368 20.8952 116.44 19.9797C115.512 18.7751 114.936 17.3457 114.728 15.7236C114.536 14.262 114.68 12.8166 115.16 11.4835C115.192 11.3872 115.224 11.3068 115.256 11.2265H111.945V26.131H106.57V11.2265H101.707V6.32798H119.399C119.543 6.23161 119.703 6.15131 119.863 6.05494C121.191 5.30008 122.695 4.78614 124.294 4.5131C123.735 3.74218 122.839 3.27642 121.863 3.27642L121.895 3.29248ZM8.92616 18.9036C9.11812 19.5782 9.32608 20.0921 9.55003 20.4776C9.90196 21.1682 10.2219 21.4252 10.2219 21.4252C10.8138 22.0194 11.5496 22.3567 12.3974 22.3567C13.4852 22.3567 14.2691 21.8107 14.797 20.8631C15.0209 20.4294 15.2129 19.9315 15.3408 19.3694C15.3888 19.2249 15.4048 19.0642 15.4528 18.9036C15.4848 18.7751 15.5008 18.6306 15.5168 18.5021H20.7317C19.9799 23.4007 16.8125 26.1471 12.4454 26.1471C6.8146 26.1471 3.03937 22.7101 3.03937 16.1412C3.13535 9.71682 6.89458 6.13525 12.4294 6.13525C17.4684 6.13525 20.9077 9.78107 20.9077 16.1412H8.51025C8.55824 17.2815 8.7342 18.197 8.91017 18.9036H8.92616ZM35.1768 21.1361L31.3855 17.6188C31.2416 20.6382 30.0098 23.1116 27.0664 23.497C25.0668 23.754 22.6513 22.9831 22.2994 20.2688C22.0115 17.9721 23.4832 16.5748 25.0508 16.366C26.4426 16.1893 27.9622 16.9603 28.1702 18.6145C28.4102 20.3652 26.8745 20.8952 26.9864 21.8588C27.0504 22.3567 27.4983 22.4852 27.9622 22.421C29.7059 22.1801 30.8097 19.4658 30.4737 16.9603C30.4737 16.88 30.4417 16.7997 30.4257 16.7354L24.8429 11.5638C23.2912 10.1344 23.1952 7.69315 24.6349 6.13525L24.8749 5.89434C26.2986 4.33643 28.7301 4.24007 30.2818 5.68555L33.6091 8.76923C33.785 5.86222 35.0168 3.45309 37.9122 3.08369C39.9118 2.82671 42.3273 3.59763 42.6792 6.31192C42.9672 8.60862 41.4955 9.98986 39.9278 10.1986C38.5361 10.3753 37.0164 9.6044 36.8084 7.96619C36.5685 6.19949 38.1042 5.66948 37.9762 4.70583C37.9122 4.20795 37.4643 4.07946 37.0004 4.1437C35.2567 4.36855 34.169 7.06678 34.4889 9.57227L40.5836 15.2257C42.1353 16.6551 42.2313 19.0964 40.7916 20.6543L40.5676 20.8952C39.1439 22.4531 36.7124 22.5495 35.1608 21.104L35.1768 21.1361ZM54.0529 27.8495C52.4692 27.8495 51.2694 26.8216 51.2694 24.8622C51.2694 23.8825 51.6374 22.967 51.9733 22.2925C52.2293 21.7625 52.4692 21.4252 52.7411 21.4252C52.8531 21.4252 52.9971 21.4894 52.9971 21.7785C52.9971 22.0676 52.7411 22.3728 52.5812 22.5976C51.9733 23.5452 51.8293 24.2198 51.8293 24.798C51.8293 25.6331 52.2292 26.0025 52.7251 26.0025C54.6448 26.0025 56.5644 21.0397 56.5644 17.6027C56.5644 14.7599 55.8925 13.5875 54.8367 13.5875C53.7809 13.5875 52.9171 14.5993 52.0533 16.9442C50.2777 21.6822 49.9097 26.8538 49.7498 28.0583C49.1099 33.1657 47.1103 34.9324 44.1829 34.9324C41.5115 34.9324 40.1197 32.7481 40.1197 30.5478C40.1197 24.541 47.0143 18.3736 47.0143 11.1944C47.0143 9.82925 46.4224 8.92984 45.5426 8.92984C44.4548 8.92984 43.703 10.1665 43.703 11.8369C43.703 13.5072 44.4229 14.4869 44.4229 14.9687C44.4229 15.1615 44.2789 15.3221 44.1189 15.3221C43.895 15.3221 43.767 15.1293 43.639 14.7921C43.2871 13.9569 43.0311 12.672 43.0311 11.8369C43.0311 9.6847 44.1669 7.78952 46.5344 7.78952C49.7018 7.78952 51.1895 10.5841 51.1895 13.6839C51.1895 15.6915 50.7416 16.8639 50.7416 17.2333C50.7416 17.426 50.8055 17.4903 50.9175 17.4903C51.1575 17.4903 51.2694 17.0727 51.4454 16.3981C52.2293 13.186 54.0529 7.77346 58.7559 7.77346C61.5393 7.77346 63.8909 9.9738 63.8909 14.6154C63.8909 21.0397 59.0598 27.8174 54.0529 27.8174V27.8495ZM70.5935 16.1412C70.6575 17.2815 70.8334 18.197 71.0094 18.9036C71.2013 19.5782 71.4093 20.0921 71.6173 20.4776C71.8412 20.9112 72.0492 21.1522 72.1771 21.2967C72.2091 21.3128 72.2251 21.3449 72.2411 21.3609C72.2411 21.3609 72.2731 21.377 72.2891 21.4091C72.2891 21.4091 72.4171 21.5216 72.4651 21.5697C72.4651 21.5697 72.5131 21.6179 72.5291 21.634C72.5291 21.634 72.5291 21.634 72.5451 21.65C72.5771 21.6822 72.6251 21.6982 72.673 21.7464C72.689 21.7464 72.705 21.7625 72.721 21.7785C72.817 21.8588 72.897 21.907 72.993 21.9552C73.089 22.0194 73.1849 22.0516 73.2809 22.0997C73.3289 22.1158 73.3769 22.1479 73.4409 22.164C73.5049 22.1961 73.5849 22.2282 73.6808 22.2282C73.7768 22.2604 73.8568 22.2764 73.9368 22.2925C74.0008 22.2925 74.0648 22.3085 74.1127 22.3085C74.2087 22.3085 74.3207 22.3246 74.4327 22.3246C75.5365 22.3246 76.3203 21.7625 76.8322 20.8309C77.0721 20.3973 77.2641 19.8994 77.3921 19.3373C77.4241 19.1927 77.4561 19.0321 77.4881 18.8715C77.52 18.743 77.552 18.5985 77.568 18.47H82.783C82.735 18.7591 82.687 19.0482 82.623 19.3212C82.623 19.3533 82.623 19.3855 82.607 19.4176C82.543 19.6906 82.479 19.9476 82.399 20.2046C82.3191 20.4776 82.2231 20.7506 82.1271 20.9915C82.0311 21.2325 81.9191 21.4894 81.8072 21.7303C81.7432 21.8749 81.6632 22.0194 81.5832 22.1479C81.5832 22.164 81.5672 22.1961 81.5352 22.2122C81.5352 22.2122 81.5352 22.2282 81.5352 22.2443C81.5192 22.2764 81.5032 22.3085 81.4872 22.3246C81.4872 22.3246 81.4819 22.33 81.4712 22.3407C81.4712 22.3407 81.4072 22.4691 81.3433 22.5334C81.2793 22.6619 81.1993 22.7904 81.1033 22.9028C81.0873 22.951 81.0393 22.9992 81.0073 23.0473C81.0073 23.0473 81.0073 23.0634 80.9753 23.0795C80.9753 23.0955 80.9593 23.1276 80.9273 23.1437C80.9273 23.1598 80.9113 23.1919 80.8794 23.2079C80.8634 23.224 80.8314 23.2561 80.8154 23.2722C80.7194 23.4007 80.6234 23.5131 80.5274 23.6255C80.1915 23.9949 79.8236 24.3322 79.4397 24.6213C79.3117 24.7016 79.1997 24.798 79.0717 24.8622C79.0397 24.8943 79.0077 24.9104 78.9757 24.9265C78.9278 24.9586 78.8958 24.9907 78.8478 25.0068C78.7998 25.0228 78.7678 25.0549 78.7198 25.071C78.6238 25.1353 78.5118 25.1834 78.3999 25.2316C78.3519 25.2637 78.3199 25.2798 78.2719 25.2959C78.2559 25.3119 78.2239 25.328 78.1919 25.344C78.1439 25.3762 78.0959 25.3922 78.0479 25.4083C77.92 25.4725 77.808 25.5207 77.68 25.5689C77.632 25.585 77.584 25.6171 77.536 25.6331C77.3601 25.6974 77.1681 25.7616 76.9762 25.8098C76.9282 25.8259 76.8802 25.8419 76.8322 25.858C76.7842 25.858 76.7362 25.8741 76.7042 25.8901C76.4963 25.9383 76.3043 25.9865 76.0963 26.0186C75.8724 26.0668 75.6484 26.0828 75.4245 26.115C75.3445 26.115 75.2645 26.115 75.1845 26.131C74.9766 26.131 74.7526 26.1471 74.5287 26.1471H74.5127C71.7132 26.1471 69.3617 25.2959 67.7141 23.6095C67.5061 23.4007 67.3141 23.1758 67.1222 22.9349C66.9302 22.694 66.7703 22.4531 66.6103 22.1961C66.5143 22.0194 66.4023 21.8428 66.3064 21.6661C66.0664 21.2003 65.8744 20.7346 65.7145 20.2046C65.6505 19.9797 65.5705 19.7388 65.5065 19.4979C65.4585 19.3373 65.4265 19.1606 65.3945 18.9839C65.3465 18.8233 65.3306 18.6627 65.2986 18.5021C65.2666 18.2933 65.2346 18.1006 65.2186 17.8918C65.1866 17.6509 65.1706 17.41 65.1546 17.153C65.1386 16.8157 65.1226 16.4784 65.1226 16.1251C65.2186 9.70076 68.9778 6.11919 74.5127 6.11919C74.8486 6.11919 75.1685 6.13525 75.4885 6.16737C75.7764 6.18343 76.0483 6.23161 76.3363 6.29586C76.4803 6.31192 76.6242 6.3601 76.7682 6.39222C77.0561 6.45647 77.3281 6.55283 77.584 6.6492C77.712 6.69738 77.84 6.74556 77.9839 6.80981C78.2399 6.92223 78.4958 7.05072 78.7358 7.17921C78.9757 7.32375 79.1997 7.4683 79.4237 7.62891C79.6636 7.78952 79.8716 7.98225 80.0795 8.15892C80.2875 8.33559 80.4794 8.54438 80.6714 8.75317C82.1751 10.4556 83.0389 12.9611 83.0389 16.1412H70.6415H70.5935ZM100.971 26.2756C100.347 26.4522 99.4835 26.5325 98.9076 26.5325C94.5246 26.5325 91.5972 22.5495 89.9655 18.5342V26.131H84.4786V6.34404H92.8929C97.7079 6.34404 100.667 8.83347 100.667 12.5114C100.667 15.8199 98.4437 18.213 94.5565 18.3254C95.9003 20.3652 97.5319 21.3609 100.155 21.377C100.571 21.377 101.003 21.3609 101.387 21.3288L100.955 26.2756H100.971Z" fill="#330C00"/>
<path d="M95.1655 13.2982C95.1655 14.8722 94.1255 16.0607 92.4295 16.0607C91.4695 16.0607 90.6375 15.6913 89.9495 15.2416V10.5197H91.8055C93.9975 10.5197 95.1655 11.676 95.1655 13.2982Z" fill="#330C00"/>
<path d="M77.6494 14.2782H70.8334C70.8974 13.8124 71.0094 13.3788 71.1214 12.9612C71.2174 12.6882 71.3134 12.4151 71.4094 12.1742C71.6494 11.6763 71.9214 11.2427 72.2574 10.9054C72.4014 10.7448 72.5614 10.6163 72.7214 10.5039C72.8814 10.3915 73.0574 10.2791 73.2334 10.1987C73.4094 10.1184 73.6014 10.0542 73.8254 10.006C74.0174 9.95783 74.2254 9.94177 74.4494 9.94177C74.6254 9.94177 74.8014 9.94177 74.9614 9.98995C75.1214 10.0221 75.2814 10.0703 75.4254 10.1184C75.7294 10.2469 75.9854 10.4075 76.2094 10.6324C76.5294 10.9215 76.7694 11.3069 76.9934 11.7727C77.1054 11.9976 77.2014 12.2385 77.2654 12.5115C77.3614 12.7845 77.4094 13.0576 77.4734 13.3627C77.5054 13.5073 77.5214 13.6518 77.5534 13.8124C77.5694 13.973 77.6014 14.1337 77.6174 14.2943L77.6494 14.2782Z" fill="#330C00"/>
<path d="M15.5822 14.2782H8.75021C9.10221 11.8048 10.3822 9.94177 12.3822 9.94177C14.3822 9.94177 15.2782 11.6924 15.5822 14.2782Z" fill="#330C00"/>
<path d="M157.216 2.45733L151.489 1.8149H151.457L151.201 1.78278C150.913 1.73459 150.609 1.76672 150.337 1.8149C150.305 1.8149 150.273 1.8149 150.257 1.8149C150.225 1.8149 150.209 1.8149 150.177 1.83096C150.065 1.84702 149.953 1.87914 149.857 1.92732C149.761 1.95945 149.649 1.99157 149.553 2.05581C148.305 1.20458 146.866 0.658516 145.298 0.481846C145.17 0.465785 145.042 0.449724 144.898 0.433663H144.85C144.642 0.433663 144.45 0.417603 144.226 0.417603C143.986 0.417603 143.746 0.417603 143.522 0.449724C143.314 0.449724 143.123 0.481846 142.899 0.513968C142.851 0.513968 142.803 0.530029 142.739 0.546089C142.691 0.546089 142.627 0.546089 142.579 0.578211C142.259 0.626394 141.923 0.706698 141.603 0.803063C141.523 0.819124 141.459 0.851246 141.363 0.867307C141.203 0.915489 141.043 0.979733 140.883 1.04398C140.755 1.09216 140.643 1.14034 140.531 1.20458C140.387 1.26883 140.243 1.33307 140.083 1.41338C139.875 1.50974 139.683 1.62217 139.491 1.73459C139.331 1.83096 139.171 1.92732 139.011 2.03975C138.915 2.10399 138.819 2.16824 138.723 2.24854C138.595 2.34491 138.467 2.44127 138.339 2.53764C138.244 2.60188 138.18 2.66612 138.1 2.74643C138.084 2.74643 138.052 2.77855 138.036 2.79461C138.036 2.81067 138.004 2.82673 137.988 2.84279C137.844 2.97128 137.732 3.08371 137.588 3.21219C137.204 3.58159 136.82 3.99917 136.468 4.46494C136.34 4.65767 136.212 4.83434 136.068 5.02707C136.052 5.05919 136.036 5.07525 136.02 5.10737C136.004 5.12344 135.972 5.15556 135.956 5.18768C135.892 5.3001 135.828 5.41253 135.748 5.54102C135.716 5.55708 135.7 5.57314 135.716 5.5892C135.636 5.71769 135.556 5.84617 135.476 5.97466C135.428 6.0389 135.396 6.13527 135.364 6.19951C135.316 6.27982 135.268 6.37618 135.204 6.45649C135.14 6.58497 135.092 6.6974 135.028 6.82589C134.98 6.92225 134.932 7.01862 134.9 7.11498C134.804 7.32377 134.708 7.53257 134.628 7.74136C134.388 7.54863 134.132 7.37196 133.86 7.19529C133.604 7.01862 133.317 6.85801 133.029 6.71346C132.741 6.55285 132.453 6.42437 132.149 6.29588C131.845 6.16739 131.541 6.05497 131.221 5.9586C130.933 5.86224 130.629 5.78193 130.325 5.70163C130.261 5.68557 130.165 5.6695 130.101 5.65344C129.477 5.5089 128.821 5.41253 128.15 5.36435C128.022 5.36435 127.894 5.34829 127.75 5.34829H127.734H127.718C127.718 5.34829 127.638 5.33223 127.59 5.34829H127.542C127.542 5.34829 127.398 5.33223 127.334 5.34829C126.598 5.34829 125.862 5.38041 125.11 5.47677C125.014 5.47677 124.934 5.49284 124.854 5.52496C124.614 5.55708 124.374 5.5892 124.15 5.65344C123.942 5.70163 123.75 5.73375 123.559 5.78193C123.383 5.83011 123.191 5.8783 123.015 5.92648C122.823 5.97466 122.631 6.05497 122.439 6.10315C122.311 6.15133 122.199 6.18345 122.087 6.23164C121.959 6.27982 121.847 6.328 121.735 6.37618H121.943H121.719C121.495 6.47255 121.287 6.55285 121.063 6.66528C120.855 6.76164 120.647 6.87407 120.439 6.9865C120.135 7.16317 119.847 7.33983 119.575 7.53257C118.664 8.15894 117.896 8.9138 117.288 9.74896C117.16 9.94169 117.032 10.1184 116.92 10.3111C116.92 10.3272 116.888 10.3593 116.872 10.3753C116.792 10.5038 116.728 10.6323 116.648 10.7769C116.552 10.9375 116.472 11.0981 116.408 11.2587C116.328 11.4675 116.248 11.6602 116.168 11.869C115.752 13.0414 115.608 14.3102 115.784 15.6433C116.04 17.683 116.92 19.1767 118.072 20.2688C116.68 20.7828 115.848 22.2122 116.088 23.6737L116.152 24.0913C116.184 24.3001 116.216 24.4928 116.28 24.6856C116.328 24.9265 116.408 25.1674 116.472 25.4083C116.568 25.6813 116.664 25.9544 116.792 26.2274C116.936 26.5486 117.096 26.8538 117.272 27.1589C117.352 27.2874 117.432 27.4159 117.528 27.5605C117.624 27.705 117.72 27.8335 117.816 27.962C118.024 28.235 118.232 28.492 118.472 28.7329C118.68 28.9417 118.887 29.1505 119.095 29.3432C119.319 29.5359 119.543 29.7126 119.799 29.8893C120.039 30.066 120.279 30.2266 120.551 30.3872C120.807 30.5478 121.079 30.6763 121.351 30.8208C121.623 30.9493 121.911 31.0778 122.215 31.1902C122.503 31.3026 122.807 31.399 123.111 31.4954C123.415 31.5917 123.734 31.672 124.054 31.7363C124.374 31.8005 124.71 31.8648 125.03 31.913C125.35 31.9611 125.702 31.9933 126.054 32.0093C126.406 32.0414 126.758 32.0575 127.11 32.0575C127.286 32.0575 127.462 32.0575 127.638 32.0414H127.766C127.974 32.0414 128.182 32.0414 128.39 31.9933C128.645 31.9933 128.901 31.9451 129.173 31.929C133.524 31.3669 136.852 29.1665 138.355 26.1632C138.643 26.3398 138.947 26.5165 139.251 26.6611C139.523 26.7895 139.795 26.918 140.083 27.0144C140.259 27.0786 140.451 27.1429 140.643 27.1911C140.723 27.2232 140.803 27.2553 140.899 27.2553C141.091 27.3195 141.283 27.3677 141.475 27.3999C141.507 27.3999 141.539 27.4159 141.571 27.4159C141.811 27.4641 142.051 27.4962 142.307 27.5283C142.483 27.5444 142.643 27.5605 142.803 27.5765C142.963 27.5926 143.123 27.5765 143.298 27.5765C143.474 27.5765 143.65 27.5765 143.842 27.5765C143.858 27.5765 143.874 27.5765 143.89 27.5765C144.146 27.5765 144.402 27.5283 144.658 27.5123C144.882 27.4802 145.09 27.448 145.314 27.3838C145.538 27.3356 145.746 27.2874 145.97 27.2232C146.258 27.1429 146.53 27.0465 146.802 26.9341C146.898 26.9983 146.994 27.0786 147.106 27.1429C147.138 27.1589 147.17 27.1911 147.218 27.2071C147.33 27.2714 147.442 27.3356 147.57 27.3838C147.682 27.432 147.778 27.4641 147.906 27.4962C147.922 27.4962 147.954 27.5123 147.986 27.5283C148.113 27.5605 148.241 27.5765 148.385 27.5926L154.4 28.2671C154.528 28.2671 154.64 28.2832 154.752 28.2832C154.944 28.2832 155.12 28.2671 155.312 28.235C155.408 28.219 155.488 28.1868 155.584 28.1708C155.84 28.1065 156.096 27.978 156.336 27.8335C156.576 27.6889 156.8 27.5123 156.976 27.3195C157.04 27.2553 157.104 27.1911 157.152 27.1108C157.248 27.0144 157.312 26.8859 157.392 26.7574C157.456 26.6289 157.536 26.5165 157.584 26.388C157.695 26.131 157.759 25.8419 157.791 25.5368L159.983 5.91042C160.159 4.20797 158.943 2.68218 157.264 2.47339L157.216 2.45733ZM128.757 28.8453C128.358 28.8935 127.958 28.9256 127.574 28.9417C123.175 29.1184 119.735 26.9823 119.175 23.5934L119.111 23.1598L119.511 23.0152L124.31 21.3449L124.87 21.1522L124.934 21.5376L124.982 21.7464C125.302 23.3686 126.598 24.2359 128.374 24.011C128.406 24.011 128.438 24.011 128.47 24.011C129.317 23.8665 130.565 23.4168 130.437 22.4049C130.293 21.2325 128.39 20.831 126.214 20.3973C123.127 19.7709 119.287 19 118.824 15.2578C118.392 11.869 121.127 9.12259 125.478 8.56046C126.214 8.46409 126.934 8.43197 127.638 8.48016C131.221 8.64077 134.068 10.4235 134.596 13.0736L134.692 13.5072L134.276 13.6678L130.149 15.2418L129.621 15.4506L129.061 15.6594L128.933 15.0651C128.741 14.1496 128.054 13.4911 127.142 13.3145C126.854 13.2502 126.534 13.2342 126.198 13.2663C125.078 13.4108 124.262 14.1175 124.358 14.8563C124.502 15.9324 126.454 16.3179 128.517 16.7033C131.669 17.2976 135.604 18.0524 136.084 21.8267C136.548 25.3762 133.54 28.2832 128.789 28.8935L128.757 28.8453ZM154.704 25.0389V25.1674L148.673 24.4928L148.865 22.7583L149.041 21.1522C147.81 23.0474 145.954 24.2519 143.906 24.4447C143.474 24.4928 143.043 24.4928 142.611 24.4447C138.547 23.9949 135.7 20.06 136.452 13.186C137.22 6.37618 140.787 3.16401 144.818 3.54947C144.866 3.54947 144.882 3.54947 144.93 3.54947C147.554 3.83857 149.489 5.65344 150.481 8.14288L150.689 6.328L150.865 4.83434L152.017 4.96283L156.88 5.5089L154.704 25.0068V25.0389Z" fill="#330C00"/>
<path d="M150.163 11.0178L149.587 16.2536C149.347 18.4539 148.307 20.2527 146.659 20.59C146.371 20.6543 146.067 20.6703 145.731 20.6382C143.539 20.3973 142.211 17.7794 142.643 13.8926C143.075 10.0059 144.947 7.74133 147.139 7.99831C147.235 7.99831 147.331 8.03043 147.427 8.04649C148.739 8.33559 149.571 9.52409 150.179 11.0338L150.163 11.0178Z" fill="#330C00"/>
<path d="M40.5836 15.2577C42.1353 16.6872 42.2313 19.1284 40.7916 20.6863L40.5676 20.9272C39.1439 22.4851 36.7124 22.5815 35.1608 21.136L31.3695 17.6187C31.2256 20.6381 29.9938 23.1115 27.0504 23.497C25.0508 23.7539 22.6353 22.983 22.2834 20.2687C21.9955 17.972 23.4672 16.5747 25.0348 16.3659C26.4266 16.1893 27.9462 16.9602 28.1542 18.6145C28.3942 20.3651 26.8585 20.8951 26.9704 21.8588C27.0344 22.3566 27.4823 22.4851 27.9462 22.4209C29.6899 22.18 30.7937 19.4657 30.4577 16.9602C30.4577 16.8799 30.4257 16.7996 30.4097 16.7353L24.8269 11.5637C23.2752 10.1343 23.1792 7.69308 24.6189 6.13517L24.8589 5.89426C26.2826 4.33636 28.7141 4.23999 30.2658 5.68547L33.5931 8.76915C33.769 5.86214 35.0008 3.45301 37.8962 3.08361C39.8958 2.82663 42.3113 3.59756 42.6632 6.31184C42.9512 8.60854 41.4795 9.98978 39.9118 10.1986C38.5201 10.3752 37.0004 9.60432 36.7924 7.96611C36.5525 6.19942 38.0882 5.66941 37.9602 4.70576C37.8962 4.20787 37.4483 4.07938 36.9844 4.14362C35.2407 4.36848 34.153 7.0667 34.4729 9.5722L40.5676 15.2256L40.5836 15.2577Z" fill="#FFF9EB"/>
<path d="M58.7559 7.80573C54.0529 7.80573 52.2452 13.2182 51.4454 16.4304C51.2694 17.105 51.1575 17.5225 50.9175 17.5225C50.8055 17.5225 50.7415 17.4583 50.7415 17.2656C50.7415 16.8962 51.1894 15.7237 51.1894 13.7161C51.1894 10.6164 49.6858 7.82179 46.5344 7.82179C44.1669 7.82179 43.0311 9.71697 43.0311 11.8691C43.0311 12.7043 43.2871 13.9892 43.639 14.8243C43.783 15.1616 43.8949 15.3543 44.1189 15.3543C44.2789 15.3543 44.4228 15.1937 44.4228 15.001C44.4228 14.5192 43.703 13.6037 43.703 11.8691C43.703 10.1346 44.4548 8.96211 45.5426 8.96211C46.4224 8.96211 47.0143 9.86152 47.0143 11.2267C47.0143 18.4059 40.1197 24.5733 40.1197 30.58C40.1197 32.7804 41.5114 34.9646 44.1829 34.9646C47.1263 34.9646 49.1259 33.198 49.7497 28.0906C49.8937 26.886 50.2776 21.6984 52.0533 16.9765C52.9171 14.6316 53.7809 13.6198 54.8367 13.6198C55.8925 13.6198 56.5643 14.7922 56.5643 17.635C56.5643 21.072 54.6447 26.0348 52.7251 26.0348C52.2292 26.0348 51.8293 25.6654 51.8293 24.8302C51.8293 24.2681 51.9733 23.5775 52.5812 22.6299C52.7251 22.4051 52.9971 22.0999 52.9971 21.8108C52.9971 21.5378 52.8371 21.4575 52.7411 21.4575C52.4852 21.4575 52.2452 21.8108 51.9733 22.3247C51.6374 22.9993 51.2694 23.9148 51.2694 24.8945C51.2694 26.8539 52.4692 27.8818 54.0529 27.8818C59.0598 27.8818 63.8908 21.1202 63.8908 14.6798C63.8908 10.0221 61.5553 7.83785 58.7559 7.83785V7.80573Z" fill="#FFF9EB"/>
<path d="M100.155 21.3771C97.5319 21.3611 95.9002 20.3653 94.5565 18.3255C98.4437 18.2131 100.667 15.8201 100.667 12.5115C100.667 8.83358 97.7079 6.34415 92.8928 6.34415H84.4786V26.1311H89.9654V18.5343C91.5971 22.5496 94.5245 26.5326 98.9076 26.5326C99.4675 26.5326 100.347 26.4523 100.971 26.2757L101.403 21.3289C101.003 21.3611 100.587 21.3771 100.171 21.3771H100.155ZM92.4289 16.061C91.4691 16.061 90.6373 15.6916 89.9494 15.2419V10.52H91.8051C93.9966 10.52 95.1644 11.6764 95.1644 13.2985C95.1644 14.9206 94.1246 16.061 92.4289 16.061Z" fill="#FFF9EB"/>
<path d="M77.5201 18.9036C77.4881 19.0642 77.4561 19.2248 77.4241 19.3694C77.2961 19.9315 77.1041 20.4294 76.8642 20.863C76.3523 21.7946 75.5845 22.3567 74.4647 22.3567C74.3687 22.3567 74.2567 22.3567 74.1448 22.3406C74.0808 22.3406 74.0168 22.3406 73.9688 22.3246C73.8728 22.3246 73.7928 22.2924 73.7128 22.2603C73.6329 22.2603 73.5529 22.2121 73.4729 22.1961C73.4089 22.18 73.3609 22.1479 73.3129 22.1318C73.2169 22.0836 73.105 22.0515 73.025 21.9873C72.929 21.9391 72.849 21.8909 72.753 21.8106C72.7051 21.8106 72.6891 21.7624 72.6571 21.7464C72.6411 21.7303 72.6091 21.6982 72.5931 21.6821C72.5931 21.6821 72.5877 21.6768 72.5771 21.6661C72.5771 21.6661 72.5291 21.6339 72.5131 21.6018C72.5131 21.6018 72.3851 21.5055 72.3371 21.4412C72.3371 21.4412 72.3051 21.393 72.2891 21.393C72.2731 21.377 72.2411 21.3449 72.2252 21.3288C72.0972 21.1842 71.8892 20.9273 71.6653 20.5097C71.4573 20.1403 71.2493 19.6103 71.0574 18.9357C70.8814 18.229 70.7055 17.3136 70.6415 16.1733H83.0389C83.0389 12.9932 82.1751 10.4877 80.6874 8.78526C80.5114 8.57647 80.3035 8.36767 80.0955 8.191C79.8876 8.01434 79.6796 7.82161 79.4397 7.661C79.2157 7.50039 78.9758 7.35584 78.7518 7.21129C78.5119 7.08281 78.2559 6.95432 78 6.84189C77.872 6.77765 77.744 6.72947 77.6 6.68128C77.3441 6.58492 77.0562 6.50461 76.7842 6.42431C76.6402 6.39219 76.4963 6.36007 76.3523 6.32795C76.0804 6.2637 75.8084 6.23158 75.5045 6.19946C75.1845 6.16734 74.8646 6.15128 74.5287 6.15128C68.9938 6.15128 65.2346 9.73285 65.1386 16.1572C65.1386 16.5105 65.1386 16.8478 65.1706 17.1851C65.1866 17.4421 65.2186 17.683 65.2346 17.9239C65.2506 18.1327 65.2826 18.3254 65.3146 18.5342C65.3466 18.6948 65.3626 18.8554 65.4106 19.016C65.4425 19.1927 65.4745 19.3694 65.5225 19.53C65.5865 19.7709 65.6505 20.0118 65.7305 20.2367C65.9065 20.7506 66.0984 21.2324 66.3224 21.6982C66.4183 21.8749 66.5303 22.0515 66.6263 22.2282C66.7863 22.4852 66.9622 22.7421 67.1382 22.967C67.3142 23.2079 67.5221 23.4328 67.7301 23.6416C69.3777 25.3279 71.7293 26.1792 74.5287 26.1792H74.5447C74.7686 26.1792 74.9926 26.1792 75.2005 26.1631C75.2805 26.1631 75.3445 26.1631 75.4405 26.147C75.6644 26.131 75.8884 26.0989 76.1124 26.0507C76.3203 26.0186 76.5123 25.9864 76.7202 25.9222C76.7682 25.9222 76.8002 25.9061 76.8482 25.8901C76.8962 25.874 76.9442 25.858 76.9922 25.8419C77.1841 25.7937 77.3601 25.7455 77.5521 25.6652C77.5521 25.6652 77.6 25.6492 77.616 25.617C77.776 25.5689 77.92 25.5046 78.0639 25.4404C78.1119 25.4404 78.1599 25.4082 78.2079 25.3761C78.2399 25.3761 78.2719 25.3601 78.2879 25.3279C78.3359 25.3279 78.3679 25.2958 78.4159 25.2637C78.5279 25.2155 78.6238 25.1673 78.7358 25.1031C78.7838 25.087 78.8158 25.0549 78.8638 25.0388C78.9118 25.0228 78.9438 24.9907 78.9918 24.9585C79.0238 24.9585 79.0557 24.9264 79.0877 24.8943C79.2157 24.8301 79.3437 24.7337 79.4557 24.6534C79.8556 24.3643 80.2235 24.027 80.5434 23.6576C80.6874 23.497 80.8314 23.3364 80.9434 23.1597C80.9753 23.1437 80.9913 23.1115 81.0073 23.0955C81.0553 23.0473 81.0873 22.9991 81.1033 22.9509C81.1833 22.8385 81.2793 22.71 81.3433 22.5815C81.3913 22.5173 81.4393 22.453 81.4712 22.3888C81.5032 22.3406 81.5352 22.2924 81.5512 22.2603C81.6472 22.0997 81.7272 21.9391 81.8072 21.7785C81.9192 21.5376 82.0311 21.2967 82.1271 21.0397C82.2231 20.7827 82.3191 20.5257 82.3991 20.2527C82.479 19.9957 82.543 19.7388 82.607 19.4657C82.607 19.4336 82.623 19.4015 82.623 19.3694C82.687 19.0963 82.751 18.8072 82.783 18.5181H77.5681C77.5521 18.6466 77.5201 18.7751 77.4881 18.9197L77.5201 18.9036ZM71.1214 12.9611C71.2014 12.688 71.2973 12.415 71.4093 12.1741C71.6493 11.6762 71.9212 11.2426 72.2571 10.9053C72.4011 10.7447 72.5611 10.6162 72.721 10.5038C72.881 10.3913 73.057 10.2789 73.2329 10.1986C73.4089 10.1183 73.6009 10.0541 73.8248 10.0059C74.0168 9.9577 74.2247 9.94164 74.4487 9.94164C74.6247 9.94164 74.8006 9.94164 74.9606 9.98982C75.1206 10.0219 75.2805 10.0541 75.4245 10.1183C75.7284 10.2468 75.9844 10.4074 76.2083 10.6323C76.5283 10.9214 76.7682 11.3068 76.9922 11.7726C77.1041 11.9974 77.2001 12.2383 77.2641 12.5114C77.3601 12.7844 77.4081 13.0574 77.4721 13.3626C77.5041 13.5071 77.5201 13.6517 77.5521 13.8123C77.568 13.9729 77.6 14.1335 77.616 14.2941H70.8014C70.8654 13.8284 70.9614 13.3947 71.0894 12.9771L71.1214 12.9611Z" fill="#FFF9EB"/>
<path d="M119.415 6.34415C119.239 6.45657 119.095 6.55294 118.952 6.66536C117.976 7.33992 117.112 8.17509 116.424 9.10662C116.408 9.1548 116.376 9.17086 116.36 9.20298C115.912 9.82935 115.56 10.5039 115.288 11.2266H111.977V26.1311H106.602V11.2266H101.739V6.34415H119.415Z" fill="#FFF9EB"/>
<path d="M15.4528 18.9037C15.4048 19.0643 15.3888 19.2249 15.3409 19.3695C15.2129 19.9316 15.0209 20.4295 14.797 20.8632C14.2851 21.8107 13.5012 22.3568 12.3975 22.3568C11.5496 22.3568 10.8138 22.0195 10.2219 21.4253C10.2219 21.4253 9.90198 21.1683 9.55005 20.4777C9.34209 20.1083 9.11814 19.5783 8.92618 18.9037C8.75022 18.1971 8.57425 17.2816 8.52626 16.1413H20.9237C20.9237 9.79722 17.4844 6.13535 12.4455 6.13535C6.9106 6.13535 3.13537 9.71692 3.05539 16.1413C3.05539 22.7262 6.83061 26.1472 12.4615 26.1472C16.8445 26.1472 19.9959 23.3847 20.7477 18.5022H15.5328C15.5168 18.6307 15.4848 18.7592 15.4688 18.9037H15.4528ZM12.3815 9.94177C14.3331 9.94177 15.2769 11.6924 15.5808 14.2782H8.75022C9.10214 11.8048 10.3819 9.94177 12.3815 9.94177Z" fill="#FFF9EB"/>
<path d="M152.017 4.99493L150.865 4.86644L150.689 6.3601L150.481 8.17498C149.505 5.68555 147.57 3.87067 144.93 3.58157C144.882 3.58157 144.866 3.58157 144.818 3.58157C140.787 3.19611 137.22 6.40828 136.452 13.2181C135.684 20.0921 138.547 24.0271 142.611 24.4768C143.043 24.5249 143.49 24.5249 143.906 24.4768C145.954 24.284 147.81 23.0795 149.041 21.1843L148.865 22.7904L148.673 24.5249L154.688 25.1995V25.071L156.88 5.57312L152.017 5.02705V4.99493ZM149.585 16.2536C149.345 18.4539 148.305 20.2528 146.658 20.59C146.37 20.6543 146.066 20.6703 145.73 20.6382C143.538 20.3973 142.211 17.7794 142.643 13.8926C143.075 10.0059 144.946 7.74134 147.138 7.99831C147.234 7.99831 147.33 8.03043 147.426 8.04649C148.737 8.33559 149.569 9.52409 150.177 11.0338L149.601 16.2697L149.585 16.2536Z" fill="#FFF9EB"/>
<path d="M128.757 28.8452C128.358 28.8934 127.958 28.9255 127.574 28.9416C123.175 29.1183 119.735 26.9822 119.175 23.5933L119.111 23.1597L119.511 23.0151L124.31 21.3448L124.87 21.1521L124.934 21.5375L124.982 21.7463C125.302 23.3685 126.598 24.2358 128.374 24.0109C128.406 24.0109 128.438 24.0109 128.47 24.0109C129.317 23.8664 130.565 23.4167 130.437 22.4048C130.293 21.2324 128.39 20.8309 126.214 20.3972C123.127 19.7708 119.287 18.9999 118.824 15.2577C118.392 11.8689 121.127 9.12249 125.478 8.56036C126.214 8.46399 126.934 8.43187 127.638 8.48005C131.221 8.64066 134.068 10.4234 134.596 13.0735L134.692 13.5071L134.276 13.6677L130.149 15.2417L129.621 15.4505L129.061 15.6593L128.933 15.065C128.741 14.1495 128.054 13.491 127.142 13.3144C126.854 13.2501 126.534 13.2341 126.198 13.2662C125.078 13.4107 124.262 14.1174 124.358 14.8562C124.502 15.9323 126.454 16.3178 128.518 16.7032C131.669 17.2975 135.604 18.0523 136.084 21.8266C136.548 25.3761 133.54 28.2831 128.789 28.8934L128.757 28.8452Z" fill="#FFF9EB"/>
</svg>
