<svg width="70" height="70" viewBox="0 0 70 70" fill="none" xmlns="http://www.w3.org/2000/svg">
<rect width="70" height="70" rx="10" fill="#E86645"/>
<path d="M27.4299 20.1433C25.6939 18.4073 22.8793 18.4073 21.1433 20.1433V20.1433C19.4073 21.8793 19.4073 24.6939 21.1433 26.4299L21.2102 26.4968L29.1465 34.5669L21.2102 42.5032V42.5032C19.4429 44.1969 19.4145 47.0242 21.1271 48.7733V48.7733C22.8576 50.5405 25.7143 50.5724 27.4632 48.8234L27.4968 48.7898L35.5669 40.7197L43.5032 48.7898V48.7898C45.1916 50.5516 47.9982 50.5814 49.7236 48.856L49.856 48.7236C51.5814 46.9982 51.5516 44.1916 49.7898 42.5032V42.5032L41.7197 34.5669L49.7898 26.4968L49.8234 26.4632C51.5724 24.7143 51.5405 21.8576 49.7733 20.1271V20.1271C48.0242 18.4145 45.1969 18.4429 43.5032 20.2102V20.2102L35.5669 28.1465L27.4968 20.2102L27.4299 20.1433Z" fill="#DBD2C1"/>
</svg>
