<svg width="70" height="70" viewBox="0 0 70 70" fill="none" xmlns="http://www.w3.org/2000/svg">
<rect width="70" height="70" rx="10" fill="#E86645"/>
<path d="M20.1521 20C18.9635 20 18 20.9635 18 22.1521V22.1521C18 23.3406 18.9635 24.3042 20.1521 24.3042H50.8479C52.0365 24.3042 53 23.3406 53 22.1521V22.1521C53 20.9635 52.0365 20 50.8479 20H20.1521ZM20.1521 32.7834C18.9635 32.7834 18 33.7469 18 34.9354V34.9354C18 36.124 18.9635 37.0875 20.1521 37.0875H50.8479C52.0365 37.0875 53 36.124 53 34.9354V34.9354C53 33.7469 52.0365 32.7834 50.8479 32.7834H20.1521ZM20.1521 45.6958C18.9635 45.6958 18 46.6594 18 47.8479V47.8479C18 49.0365 18.9635 50 20.1521 50H50.8479C52.0365 50 53 49.0365 53 47.8479V47.8479C53 46.6594 52.0365 45.6958 50.8479 45.6958H20.1521Z" fill="#DBD2C1"/>
</svg>
