<svg width="38" height="38" viewBox="0 0 38 38" fill="none" xmlns="http://www.w3.org/2000/svg">
<path d="M5.43163 6.48732C5.74276 6.96232 8.40038 4.57782 10.7208 5.10863C13.1682 5.66913 15.4874 9.53089 16.4778 21.3774C17.968 22.7166 19.3724 24.1484 20.6827 25.6643C21.1023 26.1503 21.5033 26.6333 21.8856 27.113C21.943 26.5539 22.0338 25.9987 22.1576 25.4505C22.589 23.5706 23.3886 21.7948 24.51 20.2255C24.133 16.3266 22.7553 12.5913 20.5105 9.38126C19.2874 7.66532 15.048 1.68863 10.3621 2.4427C7.34113 2.9272 5.10626 6.00163 5.43163 6.48732Z" fill="#63BF6A"/>
<path d="M28.9749 35.625C28.5949 32.5767 28.4429 29.9725 28.3812 27.9668C28.2696 24.1288 28.4999 22.5744 29.4499 21.1316C29.6791 20.7812 30.9794 18.7862 32.5137 18.9192C34.2546 19.0712 35.1416 21.7859 35.3186 21.6944C35.5264 21.5876 34.8911 17.4871 32.3118 16.4326C29.2243 15.1703 24.8163 18.8907 23.0493 22.553C22.5772 23.6203 22.2355 24.7407 22.0316 25.8899C21.3397 29.087 21.0564 32.3589 21.1885 35.6274L28.9749 35.625Z" fill="#74D74D"/>
<path d="M2.65762 16.5478C2.82981 16.017 5.58837 16.2403 8.04887 16.8958C11.0176 17.6866 16.3614 19.6793 21.8844 27.1154C23.4559 29.6664 24.2215 32.6321 24.0813 35.625H12.3334C12.4581 33.7941 12.3884 31.955 12.1256 30.1388C11.9 27.1013 10.8942 24.1735 9.2055 21.6386C6.46118 18.0013 2.44031 17.2188 2.65762 16.5478Z" fill="#78DC50"/>
<path d="M20.5437 25.3211C20.5435 25.8026 20.3763 26.2693 20.0706 26.6414C19.7649 27.0135 19.3396 27.2681 18.8672 27.3619C18.3948 27.4556 17.9046 27.3827 17.4799 27.1554C17.0553 26.9282 16.7226 26.5608 16.5385 26.1158C16.3544 25.6708 16.3303 25.1757 16.4703 24.7149C16.6102 24.2541 16.9057 23.8561 17.3062 23.5887C17.7068 23.3213 18.1876 23.201 18.6669 23.2484C19.1461 23.2958 19.5941 23.5079 19.9346 23.8486C20.1281 24.0418 20.2815 24.2713 20.3861 24.524C20.4906 24.7767 20.5442 25.0476 20.5437 25.3211Z" fill="white"/>
<path d="M26.0953 25.3211C26.095 25.8026 25.9278 26.2693 25.6221 26.6414C25.3164 27.0135 24.8911 27.2681 24.4187 27.3619C23.9463 27.4556 23.4561 27.3827 23.0314 27.1554C22.6068 26.9282 22.2741 26.5608 22.09 26.1158C21.9059 25.6708 21.8818 25.1757 22.0218 24.7149C22.1618 24.2541 22.4572 23.8561 22.8577 23.5887C23.2583 23.3213 23.7391 23.201 24.2184 23.2484C24.6976 23.2958 25.1457 23.5079 25.4861 23.8486C25.6796 24.0418 25.8331 24.2713 25.9376 24.524C26.0421 24.7767 26.0957 25.0476 26.0953 25.3211Z" fill="white"/>
</svg>
