<svg width="38" height="38" viewBox="0 0 38 38" fill="none" xmlns="http://www.w3.org/2000/svg">
<g clip-path="url(#clip0_249_82)">
<path d="M37.8039 5.23769C37.8039 2.49708 35.5822 0.275391 32.8416 0.275391C30.3393 0.275391 28.2706 2.12795 27.9298 4.53625C27.898 4.51938 27.8795 4.50984 27.8795 4.50984C23.8214 2.67944 20.403 5.92137 20.403 5.92137L11.3608 15.0078L14.9336 18.4484L22.2115 11.2983C25.61 7.89966 27.4605 10.2 27.4605 10.2C30.0189 12.3612 27.5486 14.9196 27.5486 14.9196L31.2097 18.4484C34.1993 15.2195 34.3727 12.4014 33.464 10.1596C35.9106 9.8533 37.8039 7.76733 37.8039 5.23769Z" fill="#F9AE41"/>
<path d="M33.51 28.0592C33.5269 28.0275 33.5364 28.009 33.5364 28.009C35.367 23.9507 32.1249 20.5325 32.1249 20.5325L23.0383 11.4901L19.5979 15.063L26.748 22.3409C30.1466 25.7395 27.8463 27.59 27.8463 27.59C25.6851 30.1484 23.1267 27.6782 23.1267 27.6782L19.5979 31.3391C22.8266 34.3287 25.6449 34.5021 27.8865 33.5934C28.1928 36.0401 30.279 37.9334 32.8086 37.9334C35.5492 37.9334 37.7707 35.7118 37.7707 32.9711C37.7707 30.4688 35.9183 28.4001 33.51 28.0592Z" fill="#EE4035"/>
<path d="M23.1156 19.5951L15.8377 26.745C12.4391 30.1438 10.5886 27.8436 10.5886 27.8436C8.03019 25.6822 10.5004 23.124 10.5004 23.124L6.83946 19.5952C3.84987 22.824 3.67646 25.642 4.58506 27.8838C2.13831 28.1902 0.245117 30.276 0.245117 32.8058C0.245117 35.5464 2.4668 37.7679 5.20742 37.7679C7.70976 37.7681 9.77843 35.9157 10.1192 33.5074C10.1511 33.5242 10.1696 33.5336 10.1696 33.5336C14.2278 35.3643 17.6461 32.1221 17.6461 32.1221L26.6884 23.0355L23.1156 19.5951Z" fill="#4F91CD"/>
<path d="M11.301 15.7026C7.90235 12.304 10.2024 10.4535 10.2024 10.4535C12.3639 7.89512 14.9222 10.3653 14.9222 10.3653L18.4509 6.70453C15.2222 3.71495 12.4041 3.54153 10.1625 4.45013C9.85599 2.00324 7.77016 0.110046 5.24023 0.110046C2.49976 0.110046 0.278223 2.33173 0.278076 5.07234C0.278076 7.57484 2.13048 9.6435 4.53879 9.98432C4.52192 10.0162 4.51253 10.0346 4.51253 10.0346C2.68169 14.0927 5.92391 17.5109 5.92391 17.5109L15.0106 26.5533L18.4511 22.9805L11.301 15.7026Z" fill="#7AC043"/>
</g>
<defs>
<clipPath id="clip0_249_82">
<rect width="38" height="38" fill="white"/>
</clipPath>
</defs>
</svg>
