<svg width="26" height="38" viewBox="0 0 26 38" fill="none" xmlns="http://www.w3.org/2000/svg">
<path fill-rule="evenodd" clip-rule="evenodd" d="M12.6667 19C12.6667 15.5022 15.5023 12.6667 19.0001 12.6667C22.4978 12.6667 25.3334 15.5022 25.3334 19C25.3334 22.4977 22.4978 25.3333 19.0001 25.3333C15.5023 25.3333 12.6667 22.4977 12.6667 19Z" fill="#1ABCFE"/>
<path fill-rule="evenodd" clip-rule="evenodd" d="M0 31.6667C0 28.1689 2.83553 25.3333 6.33333 25.3333H12.6667V31.6667C12.6667 35.1644 9.83108 38 6.33333 38C2.83553 38 0 35.1644 0 31.6667Z" fill="#0ACF83"/>
<path fill-rule="evenodd" clip-rule="evenodd" d="M12.6667 0V12.6667H19.0001C22.4978 12.6667 25.3334 9.83108 25.3334 6.33333C25.3334 2.83553 22.4978 0 19.0001 0H12.6667Z" fill="#FF7262"/>
<path fill-rule="evenodd" clip-rule="evenodd" d="M0 6.33333C0 9.83108 2.83553 12.6667 6.33333 12.6667H12.6667V0H6.33333C2.83553 0 0 2.83553 0 6.33333Z" fill="#F24E1E"/>
<path fill-rule="evenodd" clip-rule="evenodd" d="M0 19C0 22.4977 2.83553 25.3333 6.33333 25.3333H12.6667V12.6667H6.33333C2.83553 12.6667 0 15.5022 0 19Z" fill="#A259FF"/>
</svg>
