<svg width="38" height="38" viewBox="0 0 38 38" fill="none" xmlns="http://www.w3.org/2000/svg">
<g clip-path="url(#clip0_249_60)">
<path fill-rule="evenodd" clip-rule="evenodd" d="M18.9988 0.395844C8.50723 0.395844 0 8.9356 0 19.4723C0 27.8989 5.44349 35.0486 12.9948 37.5713C13.9448 37.7465 14.2916 37.1575 14.2916 36.652C14.2916 36.199 14.2749 34.9997 14.2654 33.4081C8.97985 34.5609 7.86482 30.8508 7.86482 30.8508C7.00151 28.6476 5.75582 28.061 5.75582 28.061C4.03038 26.8772 5.88643 26.901 5.88643 26.901C7.79236 27.0357 8.79579 28.8669 8.79579 28.8669C10.4915 31.7819 13.243 30.9402 14.326 30.4514C14.4982 29.2186 14.9898 28.3782 15.5325 27.9013C11.3133 27.4196 6.87799 25.7839 6.87799 18.4745C6.87799 16.3917 7.61782 14.6892 8.83382 13.3551C8.63788 12.8723 7.98595 10.9338 9.01908 8.30734C9.01908 8.30734 10.6151 7.79467 14.2441 10.2625C15.7605 9.83931 17.385 9.62828 19.0012 9.61994C20.615 9.62828 22.2407 9.83931 23.7583 10.2625C27.3849 7.79467 28.9774 8.30734 28.9774 8.30734C30.0141 10.9338 29.3621 12.8723 29.1662 13.3551C30.3846 14.6892 31.1196 16.3917 31.1196 18.4745C31.1196 25.8018 26.6772 27.4148 22.4449 27.8869C23.1266 28.4759 23.7346 29.6395 23.7346 31.4195C23.7346 33.9696 23.7108 36.0261 23.7108 36.652C23.7108 37.1623 24.0528 37.756 25.0171 37.5689C32.5613 35.0414 38 27.8965 38 19.4723C38 8.9356 29.4927 0.395844 18.9988 0.395844Z" fill="#3E75C3"/>
</g>
<defs>
<clipPath id="clip0_249_60">
<rect width="38" height="38" fill="white"/>
</clipPath>
</defs>
</svg>
