<svg width="38" height="38" viewBox="0 0 38 38" fill="none" xmlns="http://www.w3.org/2000/svg">
<g clip-path="url(#clip0_249_17)">
<path d="M0 0H38V38H0V0Z" fill="#F7DF1E"/>
<path d="M9.99152 31.7556L12.8995 29.9957C13.4606 30.9904 13.9709 31.832 15.195 31.832C16.3685 31.832 17.1083 31.373 17.1083 29.5876V17.4457H20.6793V29.6381C20.6793 33.3367 18.5112 35.0203 15.3481 35.0203C12.4914 35.0203 10.8332 33.5407 9.99146 31.7553" fill="black"/>
<path d="M22.6191 31.3729L25.5268 29.6894C26.2922 30.9394 27.287 31.8576 29.047 31.8576C30.5266 31.8576 31.4702 31.1178 31.4702 30.0975C31.4702 28.8731 30.5009 28.4395 28.8684 27.7255L27.9759 27.3426C25.3994 26.2459 23.6903 24.8685 23.6903 21.9606C23.6903 19.2822 25.7309 17.2415 28.9195 17.2415C31.1898 17.2415 32.8223 18.0323 33.9955 20.0985L31.2151 21.884C30.6029 20.7872 29.9399 20.3537 28.9196 20.3537C27.8738 20.3537 27.2105 21.0168 27.2105 21.884C27.2105 22.9553 27.8738 23.3891 29.4041 24.0523L30.2968 24.4349C33.3322 25.7359 35.0413 27.0622 35.0413 30.0465C35.0413 33.2607 32.5161 35.0206 29.1236 35.0206C25.8076 35.0206 23.6648 33.4392 22.6191 31.3729Z" fill="black"/>
</g>
<defs>
<clipPath id="clip0_249_17">
<rect width="38" height="38" fill="white"/>
</clipPath>
</defs>
</svg>
