<svg width="38" height="38" viewBox="0 0 38 38" fill="none" xmlns="http://www.w3.org/2000/svg">
<path d="M31.0055 20.8668C29.9613 20.8681 28.9311 21.1069 27.9928 21.565C27.699 21.0775 27.4722 20.5526 27.3183 20.0046C27.2299 19.5751 27.2095 19.1343 27.2578 18.6984C27.3593 18.2187 27.4909 17.7459 27.652 17.2829C27.6461 17.2223 27.5796 16.9361 26.911 16.9266C26.2425 16.9171 25.6665 17.0537 25.6048 17.2306C25.4887 17.5538 25.3954 17.8848 25.3257 18.221C24.7724 19.5861 24.0913 20.8958 23.2915 22.1326C22.8434 21.3981 22.6591 20.5327 22.769 19.6793C22.8705 19.1996 23.0022 18.7268 23.1633 18.2638C23.1573 18.2032 23.0908 17.917 22.4223 17.9075C21.7537 17.898 21.1778 18.0346 21.116 18.2115C21.0543 18.3884 20.9759 18.8053 20.837 19.2019C20.698 19.5985 19.0759 23.2228 18.6508 24.1573C18.4323 24.6323 18.2435 25.0194 18.1105 25.2807C18.1041 25.2977 18.0962 25.314 18.0867 25.3294C17.968 25.5538 17.905 25.6761 17.905 25.6761V25.6821C17.8136 25.8459 17.7162 25.9979 17.6675 25.9979C17.5826 25.6587 17.5867 25.3032 17.6794 24.966C17.9169 23.7084 18.4988 21.7538 18.4928 21.6861C18.4928 21.6493 18.6021 21.3097 18.1164 21.1339C18.0037 21.0803 17.8773 21.063 17.7543 21.0842C17.6314 21.1055 17.5181 21.1644 17.43 21.2527C17.3873 21.2527 17.3576 21.356 17.3576 21.356C17.3576 21.356 17.886 19.1579 16.3494 19.1579C15.751 19.2783 15.1827 19.5171 14.678 19.8603C14.1732 20.2036 13.7422 20.6443 13.4103 21.1565C12.9971 21.3809 12.1171 21.8607 11.1755 22.3773C10.8192 22.5779 10.4463 22.7786 10.1008 22.971C10.077 22.9473 10.0521 22.9164 10.0283 22.8926C8.15801 20.9 4.7202 19.494 4.86864 16.8281C4.92326 15.8567 5.25695 13.3059 11.47 10.2078C16.5833 7.68788 20.6529 8.38613 21.3571 9.93463C22.3653 12.1458 19.1768 16.2509 13.8936 16.8459C13.3092 16.9645 12.7055 16.9502 12.1273 16.804C11.5491 16.6579 11.0111 16.3836 10.5532 16.0016C10.2741 15.6976 10.2314 15.6798 10.1281 15.7403C9.95826 15.8318 10.0675 16.1049 10.1281 16.2628C10.3296 16.6276 10.6022 16.9482 10.9298 17.2058C11.2574 17.4634 11.6332 17.6527 12.0352 17.7626C14.1136 18.2118 16.2806 17.997 18.2304 17.1487C21.4366 15.9101 23.9304 12.4664 23.1989 9.58194C22.4638 6.65476 17.6058 5.68932 13.0078 7.32569C10.1278 8.29478 7.46669 9.82123 5.1762 11.818C2.64326 14.1871 2.24308 16.245 2.40695 17.1083C3.0007 20.1697 7.21751 22.1611 8.90495 23.6396C8.81945 23.6883 8.74108 23.731 8.67458 23.7666C7.83026 24.1858 4.61214 25.8685 3.80583 27.6474C2.89501 29.6661 3.95189 31.1089 4.65014 31.3037C5.70227 31.5555 6.80679 31.4726 7.80949 31.0664C8.8122 30.6602 9.66305 29.9511 10.2433 29.0379C10.7373 28.2806 11.041 27.415 11.1285 26.515C11.216 25.6149 11.0846 24.7071 10.7456 23.8688C10.7399 23.8552 10.7318 23.8427 10.7218 23.8319L11.3833 23.4436C11.8143 23.1883 12.2395 22.952 12.604 22.7573C12.3568 23.4703 12.2117 24.2147 12.173 24.9684C12.089 26.1235 12.4425 27.268 13.1633 28.1746C13.273 28.269 13.4003 28.3407 13.5379 28.3856C13.6755 28.4304 13.8206 28.4475 13.9649 28.4359C14.6774 28.4359 15.004 27.8421 15.3614 27.1368C15.7984 26.2746 16.1926 25.2724 16.1926 25.2724C16.1926 25.2724 15.701 27.9811 17.037 27.9811C17.5226 27.9811 18.0143 27.3493 18.234 27.0311V27.037C18.234 27.037 18.2458 27.0192 18.2708 26.9764L18.3491 26.8494V26.8375C18.5439 26.4979 18.9809 25.726 19.6305 24.4447C20.4688 22.7929 21.2763 20.7278 21.2763 20.7278C21.3542 21.1817 21.4617 21.6299 21.5981 22.0697C21.7937 22.6028 22.025 23.1221 22.2905 23.6241C22.0957 23.8973 21.9746 24.0493 21.9746 24.0493L21.9805 24.0552C21.8226 24.2618 21.6528 24.4863 21.464 24.7048C20.9022 25.3224 20.381 25.9757 19.9036 26.6606C19.8326 26.7756 19.8083 26.9134 19.8354 27.0458C19.8625 27.1782 19.9392 27.2952 20.0496 27.3731C20.2996 27.5031 20.5846 27.5501 20.8631 27.5073C21.2828 27.4836 21.6955 27.3892 22.0838 27.2282C22.4591 27.0961 22.8131 26.9101 23.1348 26.676C23.4664 26.4463 23.7333 26.1351 23.9098 25.7724C24.0864 25.4097 24.1667 25.0077 24.143 24.605C24.1056 24.0977 23.976 23.6016 23.7606 23.1408C23.8211 23.0553 23.8793 22.971 23.9363 22.8855C24.6115 21.8778 25.22 20.827 25.758 19.7398C25.8358 20.1937 25.9433 20.6419 26.0798 21.0817C26.2411 21.5424 26.4397 21.9892 26.6735 22.4176C25.8968 23.0152 25.285 23.8007 24.8958 24.7C24.5135 25.8056 24.8103 26.3031 25.3708 26.4183C25.6775 26.4395 25.9842 26.3766 26.2579 26.2366C26.6603 26.1044 27.0394 25.9096 27.3813 25.6595C27.7417 25.4468 28.0437 25.1477 28.2599 24.7893C28.4761 24.4309 28.5998 24.0244 28.6198 23.6063C28.5929 23.189 28.4986 22.7788 28.3408 22.3915C29.3657 21.9911 30.477 21.8634 31.566 22.021C34.4564 22.3606 35.0276 24.1644 34.9183 24.9244C34.8671 25.1939 34.7588 25.4492 34.6006 25.6733C34.4425 25.8974 34.2382 26.085 34.0016 26.2236C33.8009 26.3506 33.7344 26.3934 33.7522 26.4848C33.776 26.619 33.871 26.6119 34.0431 26.5881C34.4788 26.4527 34.8631 26.1885 35.1455 25.8302C35.4279 25.4719 35.595 25.0365 35.6249 24.5813C35.7163 22.8 34.0158 20.8466 31.0091 20.8644L31.0055 20.8668ZM8.70426 28.3813C7.74476 29.4263 6.40883 29.8205 5.8317 29.4868C5.21183 29.1306 5.45526 27.5868 6.63326 26.4801C7.33205 25.851 8.08733 25.2878 8.88951 24.7974C9.02964 24.7119 9.23626 24.5908 9.48326 24.4411L9.54976 24.4043L9.69583 24.3129C9.90628 25.018 9.92536 25.7664 9.75112 26.4814C9.57687 27.1963 9.21556 27.852 8.70426 28.3813ZM15.688 23.6313C15.3543 24.4447 14.656 26.5288 14.2309 26.4124C13.8663 26.315 13.6371 24.7356 14.1585 23.1753C14.4217 22.4241 14.8051 21.7207 15.2937 21.0924C15.8162 20.5093 16.3933 20.3146 16.5323 20.5521C16.4055 21.6147 16.1209 22.6526 15.688 23.6313ZM21.4509 26.3886C21.3108 26.4611 21.1778 26.5074 21.1172 26.4741C21.0745 26.4504 21.1778 26.3554 21.1778 26.3554C21.1778 26.3554 21.901 25.5776 22.186 25.2261C22.3498 25.0194 22.5422 24.7772 22.7512 24.5029V24.5813C22.7512 25.5099 21.8523 26.1357 21.4521 26.391L21.4509 26.3886ZM25.8969 25.3745C25.7936 25.3021 25.8114 25.0586 26.1581 24.2998C26.3992 23.8125 26.7361 23.3787 27.1485 23.0244C27.2117 23.2042 27.2446 23.3932 27.2459 23.5838C27.2506 23.9893 27.1209 24.3851 26.8771 24.7092C26.6333 25.0334 26.289 25.2677 25.8981 25.3757L25.8969 25.3745Z" fill="#CD6799"/>
</svg>
