<svg width="38" height="38" viewBox="0 0 38 38" fill="none" xmlns="http://www.w3.org/2000/svg">
<path d="M7.00868 32.3012L4.34155 2.375H33.6586L30.9879 32.2964L18.9822 35.625L7.00868 32.3012Z" fill="#1572B6"/>
<path d="M19 33.0814L28.7019 30.3917L30.9842 4.82245H19V33.0814Z" fill="#33A9DC"/>
<path d="M19 15.6643H23.8569L24.1917 11.9059H19V8.23532H19.0131H28.2031L28.1153 9.21976L27.2139 19.3349H19V15.6643Z" fill="white"/>
<path d="M19.0225 25.1964L19.0058 25.2011L14.9185 24.0967L14.6572 21.1696H12.6705H10.9724L11.4866 26.9325L19.0047 29.0201L19.0225 29.0154V25.1964Z" fill="#EBEBEB"/>
<path d="M23.5446 19.1793L23.1028 24.0944L19.0095 25.1988V29.0178L26.5335 26.9325L26.5893 26.3126L27.227 19.1793H23.5446Z" fill="white"/>
<path d="M19.0132 8.23532V10.5153V11.8964V11.9059H10.1592H10.1473L10.0737 11.0806L9.90623 9.21976L9.81836 8.23532H19.0132Z" fill="#EBEBEB"/>
<path d="M19 15.6643V17.9443V19.3254V19.3349H14.9756H14.9637L14.8901 18.5096L14.7239 16.6487L14.636 15.6643H19Z" fill="#EBEBEB"/>
</svg>
