<svg width="80" height="80" viewBox="0 0 80 80" fill="none" xmlns="http://www.w3.org/2000/svg">
<rect width="80" height="80" rx="40" fill="#E86645"/>
<path d="M21.5069 21.2371C21.6427 19.0911 22.2169 18.1578 23.8633 17.4084C25.6349 16.6019 28.4291 16.9772 31.7169 18.4638C33.1331 19.1043 33.2773 19.1174 35.7591 18.8333C39.058 18.4555 43.3049 18.4568 46.3496 18.8367C48.6522 19.124 48.8034 19.1097 50.223 18.4678C54.8899 16.3577 58.5744 16.4957 59.9086 18.8306C60.5746 19.9961 60.6982 23.0202 60.1819 25.5145C59.8956 26.8973 59.9259 27.0699 60.6156 27.9773C65.4683 34.3622 61.9718 44.7117 53.6565 48.5739C53.0202 48.8696 52.484 49.0525 52.0469 49.2015C50.705 49.659 50.2976 49.7979 50.7909 51.9037C51.0284 52.9167 51.3145 55.435 51.427 57.5004C51.6302 61.2337 51.6272 61.2598 50.8938 62.0215C49.8956 63.0575 48.4569 63.075 47.482 62.0629C46.8462 61.4029 46.7841 61.0912 46.7841 58.5448C46.7841 54.7817 46.3221 52.2804 45.2306 50.1371C43.9325 47.5865 44.8948 46.6354 47.8633 46.0654C51.9893 45.2729 55.2119 42.9994 57.0081 39.6137C58.7158 36.3954 58.9732 31.9479 55.8857 29.2431C55.0077 28.3114 54.9466 27.4676 55.5735 24.9231C55.8078 23.9721 56.0043 22.7452 56.0101 22.1963C56.019 21.3296 55.9305 21.1988 55.3344 21.1988C54.9571 21.1988 53.5155 21.6888 52.1314 22.2876L49.9222 23.2436C49.7213 23.3305 49.4966 23.3639 49.2749 23.3412C43.6574 22.7655 38.3197 22.7566 32.6747 23.3435C32.4522 23.3666 32.2265 23.3332 32.0249 23.2459L29.8169 22.2892C28.4326 21.6893 26.9912 21.1988 26.614 21.1988C25.7419 21.1988 25.7288 21.7736 26.5237 25.1891C27.0093 27.2751 27.336 27.7398 25.9323 29.4077C23.8282 31.9078 23.3026 35.0123 24.4309 38.2742C25.853 42.3846 29.3354 45.1615 34.2313 46.0879C37.1827 46.6465 37.9541 47.3752 36.8271 50.3969C35.9399 52.7748 35.379 53.3877 34.0898 53.3877C32.3551 53.3877 31.2685 52.046 31.8665 50.6421C32.1299 50.0233 32.0515 49.9573 30.4265 49.4281C25.466 47.8133 21.6719 44.1939 19.9373 39.4214C18.5965 35.733 19.1865 30.9321 21.3373 28.0303C22.0697 27.0422 22.081 26.9584 21.7393 25.067C21.5459 23.9963 21.4413 22.273 21.5069 21.2371Z" fill="#F6C3B6"/>
<path d="M19.7748 48.2196C19.06 47.2623 17.6113 47.0035 16.539 47.6419C15.4668 48.28 15.1771 49.5735 15.8919 50.5308C16.4196 51.2377 17.0509 51.8183 17.5871 52.2969C17.6859 52.3852 17.7819 52.4704 17.8757 52.5535C18.3248 52.9519 18.7213 53.3035 19.1196 53.721C20.0005 54.6442 20.8792 55.8875 21.3786 58.1171C21.6011 59.1102 22.4006 59.6452 22.8436 59.8789C23.3241 60.1323 23.849 60.2817 24.281 60.3789C25.1646 60.5779 26.2373 60.6812 27.2554 60.7414C28.3729 60.8077 29.5839 60.8292 30.6667 60.835C30.6675 61.9848 31.7118 62.9169 33 62.9169C34.2887 62.9169 35.3333 61.9842 35.3333 60.8335V58.7502C35.3333 57.5996 34.2887 56.6669 33 56.6669C32.78 56.6669 32.5421 56.6675 32.29 56.6683C30.9206 56.6721 29.1358 56.6769 27.5638 56.5839C26.8058 56.5392 26.1826 56.4756 25.7257 56.3979C25.022 53.9314 23.8852 52.2904 22.6721 51.0189C22.1358 50.4571 21.5805 49.9654 21.1289 49.5654C21.0443 49.4906 20.9634 49.4189 20.8869 49.3506C20.3657 48.8854 20.0248 48.5546 19.7748 48.2196Z" fill="#F6C3B6"/>
</svg>
