<svg width="80" height="80" viewBox="0 0 80 80" fill="none" xmlns="http://www.w3.org/2000/svg">
<rect width="80" height="80" rx="40" fill="#E86645"/>
<path d="M45.8415 48.2088L48.8894 45.4377C49.3585 45.0063 49.917 44.6633 50.5325 44.4296C51.1483 44.1958 51.8088 44.0756 52.4759 44.0756C53.1432 44.0756 53.8037 44.1958 54.4194 44.4296C55.035 44.6633 55.5934 45.0063 56.0623 45.4377L59.6373 48.6879C60.1119 49.1142 60.4889 49.6215 60.746 50.1813C61.0032 50.7408 61.1356 51.3417 61.1356 51.9481C61.1356 52.5548 61.0032 53.1554 60.746 53.7152C60.4889 54.2748 60.1119 54.7821 59.6373 55.2083L58.0102 56.7083C56.8892 57.7375 55.4392 58.4188 53.8671 58.6544C52.295 58.89 50.6813 58.6686 49.2561 58.0211C36.9918 52.2817 27.0023 43.2075 20.6791 32.0629C19.9662 30.7659 19.7241 29.2967 19.9877 27.8667C20.2512 26.4367 21.0068 25.1194 22.1458 24.1044L23.7728 22.6045C24.7259 21.7432 26.0153 21.2597 27.3592 21.2597C28.7031 21.2597 29.9925 21.7432 30.9457 22.6045L34.5436 25.8754C35.491 26.742 36.0228 27.914 36.0228 29.1358C36.0228 30.3575 35.491 31.5295 34.5436 32.396L31.4957 35.167C33.511 37.6452 35.7246 39.9846 38.1186 42.1667C40.4987 44.3342 43.0576 46.3333 45.7727 48.1463L45.8415 48.2088Z" stroke="#F6C3B6" stroke-width="3.75" stroke-linecap="round" stroke-linejoin="round"/>
</svg>
