<svg width="80" height="80" viewBox="0 0 80 80" fill="none" xmlns="http://www.w3.org/2000/svg">
<rect width="80" height="80" rx="40" fill="#E86645"/>
<path d="M35.3333 54.5833H26.4667C23.8531 54.5833 22.5463 54.5833 21.548 54.1292C20.6699 53.7298 19.956 53.0923 19.5086 52.3083C19 51.4171 19 50.2502 19 47.9167V32.0833C19 29.7498 19 28.583 19.5086 27.6917C19.956 26.9077 20.6699 26.2703 21.548 25.8708C22.5463 25.4167 23.8531 25.4167 26.4667 25.4167H53.5333C56.1469 25.4167 57.4538 25.4167 58.452 25.8708C59.33 26.2703 60.044 26.9077 60.4913 27.6917C61 28.583 61 29.7498 61 32.0833V35.8333M60.0823 32.2131L48.2831 39.2364C45.2894 41.0183 43.7926 41.9094 42.1747 42.2556C40.7448 42.5614 39.2543 42.5614 37.8246 42.2556C36.2067 41.9094 34.7098 41.0183 31.7161 39.2364L19.3441 31.8721M44.6667 58.75L49.3917 57.9062C49.8035 57.8327 50.0095 57.7958 50.2016 57.7285C50.3721 57.6689 50.5343 57.5914 50.6843 57.4979C50.8537 57.3925 51.0021 57.26 51.2994 56.9946L61 48.3333C62.2887 47.1827 62.2887 45.3173 61 44.1667C59.7113 43.016 57.622 43.016 56.3333 44.1667L46.6327 52.8279C46.3355 53.0933 46.1871 53.2258 46.069 53.3771C45.9642 53.511 45.8774 53.6558 45.8107 53.8081C45.7353 53.9796 45.694 54.1635 45.6117 54.5312L44.6667 58.75Z" stroke="#F6C3B6" stroke-width="5" stroke-linecap="round" stroke-linejoin="round"/>
</svg>
