<svg width="1400" height="180" viewBox="0 0 1400 180" fill="none" xmlns="http://www.w3.org/2000/svg">
<rect x="135" width="1140" height="118" fill="#DBD2C1"/>
<path d="M222 0H20C8.9543 0 0 8.9543 0 20V160C0 171.046 8.95426 180 20 180H1380C1391.05 180 1400 171.046 1400 160V20C1400 8.95431 1391.05 0 1380 0H1181.91C1170.9 0 1161.96 8.89759 1161.91 19.9068L1161.59 87.3913C1161.54 98.4005 1152.6 107.298 1141.59 107.298L262 107.298C250.954 107.298 242 98.3438 242 87.2981V20C242 8.9543 233.046 0 222 0Z" fill="#365139"/>
</svg>
